<svg width="343" height="285" viewBox="0 0 343 285" fill="none" xmlns="http://www.w3.org/2000/svg">
<g clip-path="url(#clip0_18933_1083)">
<rect width="343" height="284.926" rx="30" fill="#99D100"/>
<rect x="0.202599" y="0.28958" width="96.1033" height="128.304" rx="19.75" transform="matrix(0.984808 0.173648 -0.174411 0.984673 -43.4034 -97.1059)" fill="#BCEC30"/>
<rect x="0.202599" y="0.28958" width="96.1033" height="128.304" rx="19.75" transform="matrix(0.984808 0.173648 -0.174411 0.984673 -43.4034 -97.1059)" stroke="#202027" stroke-width="0.5"/>
<rect x="0.202599" y="0.28958" width="96.1033" height="128.304" rx="19.75" transform="matrix(0.984808 0.173648 -0.174411 0.984673 57.3168 -79.3462)" fill="#BCEC30"/>
<rect x="0.202599" y="0.28958" width="96.1033" height="128.304" rx="19.75" transform="matrix(0.984808 0.173648 -0.174411 0.984673 57.3168 -79.3462)" stroke="#202027" stroke-width="0.5"/>
<mask id="path-5-outside-1_18933_1083" maskUnits="userSpaceOnUse" x="76.441" y="-27.2624" width="32.5198" height="38.1674" fill="black">
<rect fill="white" x="76.441" y="-27.2624" width="32.5198" height="38.1674"/>
<path d="M89.0878 -4.10892C89.3469 -5.57173 89.8812 -6.71448 90.6908 -7.53717C91.5055 -8.38911 92.6284 -9.27723 94.0594 -10.2015C95.0478 -10.8418 95.7935 -11.3892 96.2964 -11.8435C96.8045 -12.3272 97.113 -12.8762 97.2218 -13.4906C97.3721 -14.339 97.1255 -15.0764 96.4821 -15.7027C95.8732 -16.3531 94.9981 -16.779 93.857 -16.9802C92.6866 -17.1866 91.5693 -17.0969 90.5053 -16.7113C89.4705 -16.3206 88.5724 -15.6794 87.811 -14.7879L81.8932 -19.4517C83.4556 -21.2881 85.4351 -22.5834 87.8318 -23.3374C90.2284 -24.0914 92.9775 -24.195 96.079 -23.6481C99.561 -23.0341 102.226 -21.81 104.073 -19.9757C105.955 -18.1656 106.666 -15.9586 106.205 -13.3548C105.992 -12.1553 105.598 -11.1236 105.023 -10.2596C104.453 -9.42488 103.818 -8.7373 103.119 -8.19685C102.454 -7.6805 101.598 -7.10734 100.551 -6.47737C99.4058 -5.80436 98.5448 -5.20194 97.9678 -4.67011C97.396 -4.16753 97.0401 -3.52129 96.9002 -2.73138L89.0878 -4.10892ZM90.9419 8.16527C89.5082 7.91246 88.4009 7.26467 87.62 6.22188C86.8443 5.14985 86.5705 3.97019 86.7985 2.68292C87.0317 1.3664 87.677 0.363893 88.7343 -0.324595C89.8209 -1.00792 91.0957 -1.2206 92.5587 -0.962636C94.0217 -0.704669 95.1462 -0.0689217 95.9323 0.944605C96.7183 1.95813 96.9948 3.12316 96.7616 4.43968C96.5336 5.72695 95.8711 6.74151 94.7741 7.48335C93.6823 8.19593 92.4049 8.42324 90.9419 8.16527Z"/>
</mask>
<path d="M89.0878 -4.10892C89.3469 -5.57173 89.8812 -6.71448 90.6908 -7.53717C91.5055 -8.38911 92.6284 -9.27723 94.0594 -10.2015C95.0478 -10.8418 95.7935 -11.3892 96.2964 -11.8435C96.8045 -12.3272 97.113 -12.8762 97.2218 -13.4906C97.3721 -14.339 97.1255 -15.0764 96.4821 -15.7027C95.8732 -16.3531 94.9981 -16.779 93.857 -16.9802C92.6866 -17.1866 91.5693 -17.0969 90.5053 -16.7113C89.4705 -16.3206 88.5724 -15.6794 87.811 -14.7879L81.8932 -19.4517C83.4556 -21.2881 85.4351 -22.5834 87.8318 -23.3374C90.2284 -24.0914 92.9775 -24.195 96.079 -23.6481C99.561 -23.0341 102.226 -21.81 104.073 -19.9757C105.955 -18.1656 106.666 -15.9586 106.205 -13.3548C105.992 -12.1553 105.598 -11.1236 105.023 -10.2596C104.453 -9.42488 103.818 -8.7373 103.119 -8.19685C102.454 -7.6805 101.598 -7.10734 100.551 -6.47737C99.4058 -5.80436 98.5448 -5.20194 97.9678 -4.67011C97.396 -4.16753 97.0401 -3.52129 96.9002 -2.73138L89.0878 -4.10892ZM90.9419 8.16527C89.5082 7.91246 88.4009 7.26467 87.62 6.22188C86.8443 5.14985 86.5705 3.97019 86.7985 2.68292C87.0317 1.3664 87.677 0.363893 88.7343 -0.324595C89.8209 -1.00792 91.0957 -1.2206 92.5587 -0.962636C94.0217 -0.704669 95.1462 -0.0689217 95.9323 0.944605C96.7183 1.95813 96.9948 3.12316 96.7616 4.43968C96.5336 5.72695 95.8711 6.74151 94.7741 7.48335C93.6823 8.19593 92.4049 8.42324 90.9419 8.16527Z" fill="white"/>
<path d="M89.0878 -4.10892L88.6306 -4.18954L88.5496 -3.73241L89.0068 -3.6518L89.0878 -4.10892ZM90.6908 -7.53717L91.0217 -7.21173L91.0262 -7.21652L90.6908 -7.53717ZM94.0594 -10.2015L94.3111 -9.81169L94.3117 -9.81203L94.0594 -10.2015ZM96.2964 -11.8435L96.6077 -11.4991L96.6165 -11.5075L96.2964 -11.8435ZM96.4821 -15.7027L96.143 -15.3854L96.1504 -15.3775L96.1581 -15.37L96.4821 -15.7027ZM90.5053 -16.7113L90.3473 -17.1477L90.3415 -17.1455L90.5053 -16.7113ZM87.811 -14.7879L87.5234 -14.4233L87.874 -14.147L88.164 -14.4866L87.811 -14.7879ZM81.8932 -19.4517L81.5397 -19.7523L81.2273 -19.3853L81.6056 -19.0871L81.8932 -19.4517ZM87.8318 -23.3374L87.9708 -22.8946L87.9708 -22.8946L87.8318 -23.3374ZM104.073 -19.9757L103.746 -19.6462L103.751 -19.6411L104.073 -19.9757ZM105.023 -10.2596L105.406 -9.99795L105.409 -10.0025L105.023 -10.2596ZM103.119 -8.19685L102.835 -8.564L102.834 -8.56332L103.119 -8.19685ZM100.551 -6.47737L100.786 -6.07723L100.79 -6.07971L100.551 -6.47737ZM97.9678 -4.67011L98.2743 -4.3215L98.2824 -4.32894L97.9678 -4.67011ZM96.9002 -2.73138L96.8193 -2.27425L97.2765 -2.19363L97.3574 -2.65076L96.9002 -2.73138ZM87.62 6.22188L87.2437 6.49416L87.2483 6.50024L87.62 6.22188ZM88.7343 -0.324594L88.4873 -0.717502L88.4811 -0.713494L88.7343 -0.324594ZM95.9323 0.944605L95.5653 1.2292V1.2292L95.9323 0.944605ZM94.7741 7.48334L95.0278 7.87203L95.0341 7.86776L94.7741 7.48334ZM89.545 -4.02831C89.7924 -5.4251 90.2946 -6.47293 91.0216 -7.21176L90.3599 -7.86257C89.4678 -6.95602 88.9014 -5.71835 88.6306 -4.18954L89.545 -4.02831ZM91.0262 -7.21652C91.8075 -8.03343 92.8984 -8.8992 94.3111 -9.81169L93.8076 -10.5914C92.3583 -9.65526 91.2035 -8.74479 90.3553 -7.85781L91.0262 -7.21652ZM94.3117 -9.81203C95.3081 -10.4575 96.0777 -11.0205 96.6076 -11.4993L95.9853 -12.1878C95.5094 -11.7578 94.7875 -11.2261 93.8071 -10.591L94.3117 -9.81203ZM96.6165 -11.5075C97.1871 -12.0506 97.5508 -12.686 97.679 -13.4099L96.7646 -13.5712C96.6752 -13.0663 96.422 -12.6037 95.9764 -12.1796L96.6165 -11.5075ZM97.679 -13.4099C97.8574 -14.4172 97.5541 -15.3073 96.8062 -16.0354L96.1581 -15.37C96.697 -14.8454 96.8868 -14.2607 96.7646 -13.5712L97.679 -13.4099ZM96.8212 -16.02C96.1255 -16.7631 95.1483 -17.2239 93.9379 -17.4373L93.776 -16.5231C94.8479 -16.334 95.6208 -15.9432 96.143 -15.3854L96.8212 -16.02ZM93.9379 -17.4373C92.6917 -17.6571 91.4918 -17.5624 90.3473 -17.1477L90.6632 -16.2749C91.6469 -16.6314 92.6815 -16.716 93.776 -16.5231L93.9379 -17.4373ZM90.3415 -17.1455C89.229 -16.7254 88.2671 -16.0365 87.458 -15.0892L88.164 -14.4866C88.8777 -15.3223 89.712 -15.9157 90.6691 -16.2771L90.3415 -17.1455ZM88.0986 -15.1525L82.1808 -19.8164L81.6056 -19.0871L87.5234 -14.4233L88.0986 -15.1525ZM82.2468 -19.1512C83.7501 -20.918 85.654 -22.1657 87.9708 -22.8946L87.6927 -23.7802C85.2163 -23.001 83.1612 -21.6582 81.5397 -19.7523L82.2468 -19.1512ZM87.9708 -22.8946C90.2805 -23.6213 92.9517 -23.7281 95.9981 -23.191L96.16 -24.1052C93.0032 -24.6619 90.1762 -24.5615 87.6927 -23.7802L87.9708 -22.8946ZM95.9981 -23.191C99.4194 -22.5877 101.986 -21.3938 103.746 -19.6463L104.401 -20.3052C102.466 -22.2262 99.7026 -23.4806 96.16 -24.1052L95.9981 -23.191ZM103.751 -19.6411C105.52 -17.9397 106.182 -15.8891 105.748 -13.4354L106.662 -13.2742C107.15 -16.028 106.391 -18.3914 104.395 -20.3104L103.751 -19.6411ZM105.748 -13.4354C105.544 -12.2881 105.171 -11.3189 104.636 -10.5167L105.409 -10.0025C106.026 -10.9282 106.44 -12.0224 106.662 -13.2742L105.748 -13.4354ZM104.639 -10.5212C104.093 -9.72098 103.49 -9.07076 102.835 -8.564L103.402 -7.82971C104.145 -8.40384 104.812 -9.12878 105.406 -9.99797L104.639 -10.5212ZM102.834 -8.56332C102.189 -8.06204 101.349 -7.49934 100.312 -6.87502L100.79 -6.07971C101.847 -6.71534 102.719 -7.29896 103.403 -7.83038L102.834 -8.56332ZM100.316 -6.87748C99.1589 -6.19752 98.2655 -5.57566 97.6532 -5.01127L98.2824 -4.32894C98.8241 -4.82821 99.6528 -5.41119 100.786 -6.07725L100.316 -6.87748ZM97.6614 -5.01862C97.0059 -4.44248 96.6003 -3.69965 96.443 -2.81199L97.3574 -2.65076C97.48 -3.34293 97.7861 -3.8926 98.2742 -4.32159L97.6614 -5.01862ZM96.9812 -3.1885L89.1687 -4.56605L89.0068 -3.6518L96.8193 -2.27425L96.9812 -3.1885ZM91.0229 7.70814C89.6906 7.47322 88.6935 6.88061 87.9918 5.94353L87.2483 6.50024C88.1083 7.64872 89.3258 8.35171 90.861 8.6224L91.0229 7.70814ZM87.9963 5.94965C87.2932 4.97795 87.0499 3.92531 87.2557 2.76354L86.3413 2.60231C86.0911 4.01508 86.3955 5.32174 87.2438 6.49412L87.9963 5.94965ZM87.2557 2.76354C87.468 1.56501 88.0449 0.678059 88.9875 0.0643059L88.4811 -0.713494C87.309 0.0497274 86.5954 1.16779 86.3413 2.60231L87.2557 2.76354ZM88.9813 0.0682659C89.9551 -0.544095 91.1091 -0.746833 92.4777 -0.505509L92.6397 -1.41976C91.0823 -1.69437 89.6867 -1.47175 88.4873 -0.717454L88.9813 0.0682659ZM92.4777 -0.505509C93.8464 -0.264186 94.8609 0.320931 95.5653 1.2292L96.2993 0.660014C95.4316 -0.458774 94.1971 -1.14515 92.6397 -1.41976L92.4777 -0.505509ZM95.5653 1.2292C96.2673 2.13438 96.5158 3.16544 96.3044 4.35907L97.2188 4.5203C97.4737 3.08087 97.1694 1.78188 96.2993 0.660014L95.5653 1.2292ZM96.3044 4.35907C96.0986 5.52084 95.5085 6.42652 94.5142 7.09893L95.0341 7.86776C96.2337 7.05649 96.9685 5.93307 97.2188 4.5203L96.3044 4.35907ZM94.5205 7.09472C93.5415 7.73371 92.3872 7.94872 91.0229 7.70814L90.861 8.6224C92.4226 8.89776 93.8232 8.65814 95.0277 7.87197L94.5205 7.09472Z" fill="#202027" mask="url(#path-5-outside-1_18933_1083)"/>
<rect x="0.202599" y="0.28958" width="96.1033" height="128.304" rx="19.75" transform="matrix(0.984808 0.173648 -0.174411 0.984673 158.037 -61.5867)" fill="#BCEC30"/>
<rect x="0.202599" y="0.28958" width="96.1033" height="128.304" rx="19.75" transform="matrix(0.984808 0.173648 -0.174411 0.984673 158.037 -61.5867)" stroke="#202027" stroke-width="0.5"/>
<mask id="path-8-outside-2_18933_1083" maskUnits="userSpaceOnUse" x="172.525" y="-13.1514" width="40.6343" height="46.2756" fill="black">
<rect fill="white" x="172.525" y="-13.1514" width="40.6343" height="46.2756"/>
<path d="M188.678 14.7487C188.999 12.9355 189.661 11.519 190.665 10.4992C191.674 9.44321 193.066 8.34234 194.84 7.19664C196.065 6.40297 196.99 5.72452 197.613 5.1613C198.243 4.56181 198.625 3.8813 198.76 3.11975C198.946 2.06809 198.641 1.15407 197.843 0.3777C197.088 -0.428541 196.004 -0.956368 194.589 -1.20578C193.138 -1.46159 191.754 -1.35051 190.435 -0.872531C189.152 -0.388159 188.039 0.406565 187.095 1.51164L179.76 -4.26939C181.696 -6.54568 184.15 -8.15115 187.121 -9.08581C190.091 -10.0205 193.499 -10.1489 197.344 -9.47096C201.66 -8.70993 204.963 -7.19258 207.253 -4.91892C209.586 -2.67512 210.466 0.0605332 209.895 3.28804C209.631 4.77488 209.143 6.05375 208.43 7.12467C207.723 8.15933 206.936 9.01161 206.069 9.68152C205.245 10.3216 204.185 11.032 202.887 11.8129C201.467 12.6471 200.4 13.3938 199.685 14.0531C198.976 14.676 198.535 15.4771 198.362 16.4562L188.678 14.7487ZM190.976 29.9631C189.199 29.6497 187.826 28.8467 186.858 27.5541C185.897 26.2253 185.557 24.7631 185.84 23.1675C186.129 21.5356 186.929 20.2929 188.24 19.4395C189.586 18.5925 191.167 18.3289 192.98 18.6486C194.793 18.9684 196.187 19.7564 197.162 21.0127C198.136 22.269 198.479 23.7131 198.19 25.345C197.907 26.9407 197.086 28.1982 195.726 29.1178C194.373 30.0011 192.789 30.2828 190.976 29.9631Z"/>
</mask>
<path d="M188.678 14.7487C188.999 12.9355 189.661 11.519 190.665 10.4992C191.674 9.44321 193.066 8.34234 194.84 7.19664C196.065 6.40297 196.99 5.72452 197.613 5.1613C198.243 4.56181 198.625 3.8813 198.76 3.11975C198.946 2.06809 198.641 1.15407 197.843 0.3777C197.088 -0.428541 196.004 -0.956368 194.589 -1.20578C193.138 -1.46159 191.754 -1.35051 190.435 -0.872531C189.152 -0.388159 188.039 0.406565 187.095 1.51164L179.76 -4.26939C181.696 -6.54568 184.15 -8.15115 187.121 -9.08581C190.091 -10.0205 193.499 -10.1489 197.344 -9.47096C201.66 -8.70993 204.963 -7.19258 207.253 -4.91892C209.586 -2.67512 210.466 0.0605332 209.895 3.28804C209.631 4.77488 209.143 6.05375 208.43 7.12467C207.723 8.15933 206.936 9.01161 206.069 9.68152C205.245 10.3216 204.185 11.032 202.887 11.8129C201.467 12.6471 200.4 13.3938 199.685 14.0531C198.976 14.676 198.535 15.4771 198.362 16.4562L188.678 14.7487ZM190.976 29.9631C189.199 29.6497 187.826 28.8467 186.858 27.5541C185.897 26.2253 185.557 24.7631 185.84 23.1675C186.129 21.5356 186.929 20.2929 188.24 19.4395C189.586 18.5925 191.167 18.3289 192.98 18.6486C194.793 18.9684 196.187 19.7564 197.162 21.0127C198.136 22.269 198.479 23.7131 198.19 25.345C197.907 26.9407 197.086 28.1982 195.726 29.1178C194.373 30.0011 192.789 30.2828 190.976 29.9631Z" fill="white"/>
<path d="M188.678 14.7487L188.22 14.6681L188.14 15.1252L188.597 15.2058L188.678 14.7487ZM190.665 10.4992L190.996 10.8247L191 10.8199L190.665 10.4992ZM194.84 7.19664L195.092 7.58647L195.092 7.58614L194.84 7.19664ZM197.613 5.1613L197.924 5.5057L197.933 5.49737L197.613 5.1613ZM197.843 0.377699L197.504 0.695033L197.512 0.70288L197.519 0.71038L197.843 0.377699ZM190.435 -0.872532L190.277 -1.30895L190.271 -1.30675L190.435 -0.872532ZM187.095 1.51164L186.807 1.87626L187.158 2.15253L187.448 1.8129L187.095 1.51164ZM179.76 -4.26939L179.406 -4.56999L179.094 -4.20291L179.472 -3.90478L179.76 -4.26939ZM187.121 -9.08581L187.26 -8.64305V-8.64305L187.121 -9.08581ZM207.253 -4.91892L206.926 -4.58939L206.931 -4.58429L207.253 -4.91892ZM208.43 7.12467L208.813 7.38631L208.816 7.38175L208.43 7.12467ZM206.069 9.68152L205.786 9.31437L205.785 9.31505L206.069 9.68152ZM202.887 11.8129L203.122 12.213L203.126 12.2106L202.887 11.8129ZM199.685 14.0531L199.991 14.4017L199.999 14.3942L199.685 14.0531ZM198.362 16.4562L198.281 16.9133L198.738 16.9939L198.819 16.5368L198.362 16.4562ZM186.858 27.5541L186.482 27.8264L186.487 27.8325L186.858 27.5541ZM188.24 19.4395L187.992 19.0466L187.986 19.0506L188.24 19.4395ZM197.162 21.0127L196.795 21.2973V21.2973L197.162 21.0127ZM195.726 29.1178L195.98 29.5065L195.986 29.5022L195.726 29.1178ZM189.135 14.8293C189.444 13.0821 190.075 11.7605 190.995 10.8246L190.334 10.1738C189.248 11.2774 188.553 12.7888 188.22 14.6681L189.135 14.8293ZM191 10.8199C191.976 9.79888 193.336 8.72037 195.092 7.58647L194.588 6.8068C192.796 7.96431 191.373 9.08753 190.329 10.1786L191 10.8199ZM195.092 7.58614C196.326 6.78727 197.274 6.09321 197.924 5.50558L197.302 4.81702C196.706 5.35584 195.805 6.01867 194.588 6.80714L195.092 7.58614ZM197.933 5.49737C198.625 4.83839 199.063 4.07143 199.217 3.20036L198.303 3.03913C198.187 3.69116 197.86 4.28524 197.293 4.82523L197.933 5.49737ZM199.217 3.20036C199.432 1.98983 199.069 0.923141 198.167 0.0450195L197.519 0.71038C198.212 1.385 198.461 2.14635 198.303 3.03913L199.217 3.20036ZM198.182 0.0603672C197.341 -0.838505 196.154 -1.40129 194.67 -1.66291L194.508 -0.748655C195.854 -0.511441 196.836 -0.0185747 197.504 0.695033L198.182 0.0603672ZM194.67 -1.66291C193.144 -1.93209 191.676 -1.81602 190.277 -1.30891L190.593 -0.436151C191.831 -0.884998 193.133 -0.991087 194.508 -0.748655L194.67 -1.66291ZM190.271 -1.30675C188.911 -0.793046 187.734 0.0494428 186.742 1.21039L187.448 1.8129C188.344 0.763689 189.394 0.0167268 190.599 -0.438311L190.271 -1.30675ZM187.383 1.14703L180.047 -4.634L179.472 -3.90478L186.807 1.87626L187.383 1.14703ZM180.113 -3.9688C181.991 -6.17557 184.369 -7.73349 187.26 -8.64305L186.982 -9.52857C183.931 -8.56882 181.402 -6.91579 179.406 -4.56999L180.113 -3.9688ZM187.26 -8.64305C190.144 -9.55036 193.473 -9.682 197.263 -9.01384L197.425 -9.92809C193.525 -10.6157 190.039 -10.4906 186.982 -9.52857L187.26 -8.64305ZM197.263 -9.01384C201.518 -8.26349 204.723 -6.7764 206.926 -4.58943L207.58 -5.2484C205.203 -7.60877 201.801 -9.15637 197.425 -9.92809L197.263 -9.01384ZM206.931 -4.58429C209.151 -2.44928 209.983 0.129996 209.438 3.20743L210.352 3.36866C210.95 -0.00892904 210.021 -2.90096 207.575 -5.25354L206.931 -4.58429ZM209.438 3.20743C209.184 4.64203 208.716 5.85844 208.043 6.86759L208.816 7.38175C209.571 6.24906 210.079 4.90772 210.352 3.36866L209.438 3.20743ZM208.046 6.86305C207.363 7.86322 206.609 8.67815 205.786 9.31437L206.353 10.0487C207.264 9.34507 208.083 8.45543 208.813 7.38629L208.046 6.86305ZM205.785 9.31505C204.98 9.94001 203.936 10.64 202.648 11.4152L203.126 12.2106C204.433 11.424 205.511 10.7031 206.354 10.048L205.785 9.31505ZM202.652 11.4128C201.22 12.254 200.121 13.0201 199.37 13.7119L199.999 14.3942C200.679 13.7676 201.714 13.0403 203.122 12.213L202.652 11.4128ZM199.378 13.7046C198.586 14.4011 198.095 15.2987 197.904 16.3756L198.819 16.5368C198.975 15.6554 199.366 14.951 199.991 14.4016L199.378 13.7046ZM198.442 15.9991L188.759 14.2916L188.597 15.2058L198.281 16.9133L198.442 15.9991ZM191.057 29.5059C189.381 29.2104 188.119 28.4627 187.23 27.2758L186.487 27.8325C187.534 29.2308 189.016 30.0889 190.895 30.4202L191.057 29.5059ZM187.235 27.2819C186.346 26.0534 186.037 24.7182 186.297 23.2481L185.383 23.0868C185.078 24.808 185.448 26.3972 186.482 27.8264L187.235 27.2819ZM186.297 23.2481C186.565 21.7342 187.297 20.6071 188.493 19.8284L187.986 19.0506C186.561 19.9788 185.693 21.337 185.383 23.0868L186.297 23.2481ZM188.487 19.8324C189.721 19.0563 191.18 18.8026 192.899 19.1058L193.061 18.1915C191.153 17.8551 189.452 18.1287 187.992 19.0466L188.487 19.8324ZM192.899 19.1058C194.618 19.4089 195.902 20.1463 196.795 21.2973L197.529 20.7281C196.473 19.3666 194.969 18.5279 193.061 18.1915L192.899 19.1058ZM196.795 21.2973C197.685 22.4453 198 23.7554 197.732 25.2644L198.647 25.4256C198.958 23.6709 198.587 22.0928 197.529 20.7281L196.795 21.2973ZM197.732 25.2644C197.472 26.7345 196.723 27.8832 195.466 28.7334L195.986 29.5022C197.448 28.5132 198.342 27.1468 198.647 25.4256L197.732 25.2644ZM195.472 28.7292C194.232 29.5388 192.772 29.8083 191.057 29.5059L190.895 30.4202C192.807 30.7573 194.514 30.4633 195.98 29.5064L195.472 28.7292Z" fill="#202027" mask="url(#path-8-outside-2_18933_1083)"/>
<rect x="0.202599" y="0.28958" width="96.1033" height="128.304" rx="19.75" transform="matrix(0.984808 0.173648 -0.174411 0.984673 258.757 -43.8269)" fill="#BCEC30"/>
<rect x="0.202599" y="0.28958" width="96.1033" height="128.304" rx="19.75" transform="matrix(0.984808 0.173648 -0.174411 0.984673 258.757 -43.8269)" stroke="#202027" stroke-width="0.5"/>
<mask id="path-11-outside-3_18933_1083" maskUnits="userSpaceOnUse" x="273.245" y="4.60832" width="40.6343" height="46.2756" fill="black">
<rect fill="white" x="273.245" y="4.60832" width="40.6343" height="46.2756"/>
<path d="M289.398 32.5084C289.719 30.6952 290.381 29.2788 291.385 28.259C292.395 27.203 293.787 26.1021 295.56 24.9564C296.786 24.1627 297.71 23.4843 298.333 22.9211C298.963 22.3216 299.345 21.6411 299.48 20.8795C299.667 19.8279 299.361 18.9138 298.563 18.1375C297.809 17.3312 296.724 16.8034 295.309 16.554C293.859 16.2982 292.474 16.4093 291.155 16.8872C289.872 17.3716 288.759 18.1663 287.815 19.2714L280.48 13.4904C282.417 11.2141 284.87 9.60861 287.841 8.67395C290.812 7.73929 294.219 7.61091 298.064 8.2888C302.38 9.04983 305.683 10.5672 307.973 12.8408C310.306 15.0846 311.187 17.8203 310.615 21.0478C310.352 22.5346 309.863 23.8135 309.15 24.8844C308.443 25.9191 307.656 26.7714 306.79 27.4413C305.966 28.0813 304.905 28.7918 303.607 29.5727C302.188 30.4069 301.12 31.1536 300.405 31.8128C299.696 32.4358 299.255 33.2368 299.082 34.216L289.398 32.5084ZM291.696 47.7228C289.919 47.4095 288.546 46.6065 287.579 45.3139C286.617 43.9851 286.278 42.5228 286.56 40.9272C286.849 39.2953 287.649 38.0527 288.96 37.1993C290.307 36.3523 291.887 36.0886 293.7 36.4084C295.514 36.7282 296.908 37.5162 297.882 38.7725C298.856 40.0288 299.199 41.4729 298.91 43.1048C298.627 44.7004 297.806 45.958 296.446 46.8775C295.093 47.7608 293.51 48.0426 291.696 47.7228Z"/>
</mask>
<path d="M289.398 32.5084C289.719 30.6952 290.381 29.2788 291.385 28.259C292.395 27.203 293.787 26.1021 295.56 24.9564C296.786 24.1627 297.71 23.4843 298.333 22.9211C298.963 22.3216 299.345 21.6411 299.48 20.8795C299.667 19.8279 299.361 18.9138 298.563 18.1375C297.809 17.3312 296.724 16.8034 295.309 16.554C293.859 16.2982 292.474 16.4093 291.155 16.8872C289.872 17.3716 288.759 18.1663 287.815 19.2714L280.48 13.4904C282.417 11.2141 284.87 9.60861 287.841 8.67395C290.812 7.73929 294.219 7.61091 298.064 8.2888C302.38 9.04983 305.683 10.5672 307.973 12.8408C310.306 15.0846 311.187 17.8203 310.615 21.0478C310.352 22.5346 309.863 23.8135 309.15 24.8844C308.443 25.9191 307.656 26.7714 306.79 27.4413C305.966 28.0813 304.905 28.7918 303.607 29.5727C302.188 30.4069 301.12 31.1536 300.405 31.8128C299.696 32.4358 299.255 33.2368 299.082 34.216L289.398 32.5084ZM291.696 47.7228C289.919 47.4095 288.546 46.6065 287.579 45.3139C286.617 43.9851 286.278 42.5228 286.56 40.9272C286.849 39.2953 287.649 38.0527 288.96 37.1993C290.307 36.3523 291.887 36.0886 293.7 36.4084C295.514 36.7282 296.908 37.5162 297.882 38.7725C298.856 40.0288 299.199 41.4729 298.91 43.1048C298.627 44.7004 297.806 45.958 296.446 46.8775C295.093 47.7608 293.51 48.0426 291.696 47.7228Z" fill="white"/>
<path d="M289.398 32.5084L288.941 32.4278L288.86 32.885L289.317 32.9656L289.398 32.5084ZM291.385 28.259L291.716 28.5844L291.72 28.5796L291.385 28.259ZM295.56 24.9564L295.812 25.3462L295.813 25.3459L295.56 24.9564ZM298.333 22.9211L298.645 23.2655L298.653 23.2571L298.333 22.9211ZM298.563 18.1375L298.224 18.4548L298.232 18.4626L298.239 18.4701L298.563 18.1375ZM291.155 16.8872L290.997 16.4508L290.991 16.453L291.155 16.8872ZM287.815 19.2714L287.528 19.636L287.878 19.9123L288.168 19.5727L287.815 19.2714ZM280.48 13.4904L280.126 13.1898L279.814 13.5569L280.192 13.855L280.48 13.4904ZM287.841 8.67395L287.98 9.11672V9.11672L287.841 8.67395ZM307.973 12.8408L307.646 13.1704L307.651 13.1755L307.973 12.8408ZM309.15 24.8844L309.533 25.1461L309.536 25.1415L309.15 24.8844ZM306.79 27.4413L306.506 27.0741L306.505 27.0748L306.79 27.4413ZM303.607 29.5727L303.842 29.9728L303.846 29.9703L303.607 29.5727ZM300.405 31.8128L300.712 32.1614L300.72 32.154L300.405 31.8128ZM299.082 34.216L299.001 34.6731L299.458 34.7537L299.539 34.2966L299.082 34.216ZM287.579 45.3139L287.202 45.5862L287.207 45.5923L287.579 45.3139ZM288.96 37.1993L288.713 36.8064L288.707 36.8104L288.96 37.1993ZM297.882 38.7725L297.515 39.0571V39.0571L297.882 38.7725ZM296.446 46.8775L296.7 47.2662L296.706 47.262L296.446 46.8775ZM289.855 32.5891C290.165 30.8419 290.795 29.5203 291.716 28.5844L291.054 27.9336C289.968 29.0372 289.274 30.5486 288.941 32.4278L289.855 32.5891ZM291.72 28.5796C292.697 27.5586 294.057 26.4801 295.812 25.3462L295.309 24.5666C293.517 25.7241 292.093 26.8473 291.049 27.9383L291.72 28.5796ZM295.813 25.3459C297.046 24.547 297.994 23.853 298.644 23.2653L298.022 22.5768C297.426 23.1156 296.525 23.7784 295.308 24.5669L295.813 25.3459ZM298.653 23.2571C299.346 22.5982 299.783 21.8312 299.938 20.9601L299.023 20.7989C298.908 21.4509 298.581 22.045 298.013 22.585L298.653 23.2571ZM299.938 20.9601C300.152 19.7496 299.79 18.6829 298.888 17.8048L298.239 18.4701C298.932 19.1448 299.181 19.9061 299.023 20.7989L299.938 20.9601ZM298.903 17.8201C298.061 16.9213 296.874 16.3585 295.39 16.0969L295.229 17.0111C296.574 17.2483 297.556 17.7412 298.224 18.4548L298.903 17.8201ZM295.39 16.0969C293.864 15.8277 292.396 15.9437 290.997 16.4509L291.313 17.3236C292.551 16.8748 293.854 16.7687 295.229 17.0111L295.39 16.0969ZM290.991 16.453C289.631 16.9667 288.454 17.8092 287.462 18.9702L288.168 19.5727C289.064 18.5235 290.114 17.7765 291.319 17.3215L290.991 16.453ZM288.103 18.9068L280.768 13.1258L280.192 13.855L287.528 19.636L288.103 18.9068ZM280.834 13.791C282.711 11.5842 285.089 10.0263 287.98 9.11672L287.702 8.23119C284.651 9.19095 282.122 10.844 280.126 13.1898L280.834 13.791ZM287.98 9.11672C290.864 8.20941 294.193 8.07777 297.983 8.74593L298.145 7.83168C294.245 7.14405 290.76 7.26917 287.702 8.23119L287.98 9.11672ZM297.983 8.74593C302.238 9.49627 305.443 10.9834 307.646 13.1703L308.3 12.5114C305.923 10.151 302.521 8.6034 298.145 7.83168L297.983 8.74593ZM307.651 13.1755C309.871 15.3105 310.703 17.8898 310.158 20.9672L311.072 21.1284C311.67 17.7508 310.741 14.8588 308.295 12.5062L307.651 13.1755ZM310.158 20.9672C309.904 22.4018 309.436 23.6182 308.764 24.6274L309.536 25.1415C310.291 24.0088 310.8 22.6675 311.072 21.1284L310.158 20.9672ZM308.767 24.6228C308.083 25.623 307.329 26.4379 306.506 27.0741L307.073 27.8084C307.984 27.1048 308.803 26.2152 309.533 25.1461L308.767 24.6228ZM306.505 27.0748C305.7 27.6998 304.656 28.3998 303.368 29.175L303.846 29.9703C305.153 29.1838 306.231 28.4629 307.074 27.8078L306.505 27.0748ZM303.372 29.1725C301.941 30.0137 300.841 30.7799 300.09 31.4717L300.72 32.154C301.399 31.5273 302.434 30.8 303.842 29.9728L303.372 29.1725ZM300.099 31.4643C299.306 32.1609 298.815 33.0585 298.625 34.1354L299.539 34.2966C299.695 33.4152 300.086 32.7107 300.711 32.1613L300.099 31.4643ZM299.163 33.7588L289.479 32.0513L289.317 32.9656L299.001 34.6731L299.163 33.7588ZM291.777 47.2657C290.101 46.9702 288.839 46.2224 287.95 45.0356L287.207 45.5923C288.254 46.9905 289.737 47.8487 291.615 48.1799L291.777 47.2657ZM287.955 45.0417C287.066 43.8132 286.757 42.478 287.017 41.0078L286.103 40.8466C285.798 42.5677 286.168 44.157 287.202 45.5861L287.955 45.0417ZM287.017 41.0078C287.286 39.4939 288.017 38.3669 289.213 37.5882L288.707 36.8104C287.281 37.7385 286.413 39.0967 286.103 40.8466L287.017 41.0078ZM289.207 37.5921C290.441 36.8161 291.9 36.5624 293.619 36.8655L293.781 35.9513C291.873 35.6149 290.172 35.8884 288.713 36.8064L289.207 37.5921ZM293.619 36.8655C295.338 37.1686 296.622 37.906 297.515 39.0571L298.249 38.4879C297.193 37.1263 295.689 36.2877 293.781 35.9513L293.619 36.8655ZM297.515 39.0571C298.405 40.2051 298.72 41.5152 298.453 43.0242L299.367 43.1854C299.678 41.4306 299.307 39.8526 298.249 38.4879L297.515 39.0571ZM298.453 43.0242C298.192 44.4943 297.443 45.643 296.186 46.4931L296.706 47.262C298.169 46.273 299.062 44.9065 299.367 43.1854L298.453 43.0242ZM296.193 46.4889C294.952 47.2986 293.492 47.5681 291.777 47.2657L291.615 48.1799C293.527 48.5171 295.234 48.223 296.7 47.2662L296.193 46.4889Z" fill="#202027" mask="url(#path-11-outside-3_18933_1083)"/>
<rect x="0.202599" y="0.28958" width="96.1033" height="128.304" rx="19.75" transform="matrix(0.984808 0.173648 -0.174411 0.984673 359.477 -26.0671)" fill="#BCEC30"/>
<rect x="0.202599" y="0.28958" width="96.1033" height="128.304" rx="19.75" transform="matrix(0.984808 0.173648 -0.174411 0.984673 359.477 -26.0671)" stroke="#202027" stroke-width="0.5"/>
<rect x="0.202599" y="0.28958" width="96.1033" height="128.304" rx="19.75" transform="matrix(0.984808 0.173648 -0.174411 0.984673 -66.7374 35.228)" fill="#BCEC30"/>
<rect x="0.202599" y="0.28958" width="96.1033" height="128.304" rx="19.75" transform="matrix(0.984808 0.173648 -0.174411 0.984673 -66.7374 35.228)" stroke="#202027" stroke-width="0.5"/>
<rect x="0.202599" y="0.28958" width="96.1033" height="128.304" rx="19.75" transform="matrix(0.984808 0.173648 -0.174411 0.984673 33.9828 52.9878)" fill="#BCEC30"/>
<rect x="0.202599" y="0.28958" width="96.1033" height="128.304" rx="19.75" transform="matrix(0.984808 0.173648 -0.174411 0.984673 33.9828 52.9878)" stroke="#202027" stroke-width="0.5"/>
<mask id="path-16-outside-4_18933_1083" maskUnits="userSpaceOnUse" x="48.4704" y="101.423" width="40.6343" height="46.2756" fill="black">
<rect fill="white" x="48.4704" y="101.423" width="40.6343" height="46.2756"/>
<path d="M64.6235 129.323C64.9446 127.51 65.6069 126.093 66.6104 125.074C67.6203 124.018 69.0122 122.917 70.786 121.771C72.0112 120.977 72.9355 120.299 73.5589 119.736C74.1887 119.136 74.5711 118.456 74.7059 117.694C74.8922 116.643 74.5866 115.729 73.7891 114.952C73.0342 114.146 71.9496 113.618 70.5351 113.369C69.0843 113.113 67.6994 113.224 66.3805 113.702C65.0979 114.186 63.9847 114.981 63.0409 116.086L55.7055 110.305C57.6422 108.029 60.0959 106.423 63.0666 105.489C66.0373 104.554 69.4449 104.426 73.2894 105.103C77.6054 105.865 80.9085 107.382 83.1988 109.656C85.5317 111.899 86.4123 114.635 85.8406 117.863C85.5772 119.349 85.0889 120.628 84.3756 121.699C83.6687 122.734 82.8819 123.586 82.0152 124.256C81.1912 124.896 80.1303 125.606 78.8326 126.387C77.4131 127.222 76.3458 127.968 75.6306 128.628C74.9218 129.25 74.4807 130.052 74.3073 131.031L64.6235 129.323ZM66.9218 144.538C65.1446 144.224 63.772 143.421 62.8041 142.129C61.8426 140.8 61.5032 139.338 61.7858 137.742C62.0749 136.11 62.8747 134.867 64.1853 134.014C65.5322 133.167 67.1124 132.903 68.9258 133.223C70.7393 133.543 72.1332 134.331 73.1075 135.587C74.0819 136.844 74.4245 138.288 74.1355 139.919C73.8528 141.515 73.0316 142.773 71.6719 143.692C70.3186 144.576 68.7352 144.857 66.9218 144.538Z"/>
</mask>
<path d="M64.6235 129.323C64.9446 127.51 65.6069 126.093 66.6104 125.074C67.6203 124.018 69.0122 122.917 70.786 121.771C72.0112 120.977 72.9355 120.299 73.5589 119.736C74.1887 119.136 74.5711 118.456 74.7059 117.694C74.8922 116.643 74.5866 115.729 73.7891 114.952C73.0342 114.146 71.9496 113.618 70.5351 113.369C69.0843 113.113 67.6994 113.224 66.3805 113.702C65.0979 114.186 63.9847 114.981 63.0409 116.086L55.7055 110.305C57.6422 108.029 60.0959 106.423 63.0666 105.489C66.0373 104.554 69.4449 104.426 73.2894 105.103C77.6054 105.865 80.9085 107.382 83.1988 109.656C85.5317 111.899 86.4123 114.635 85.8406 117.863C85.5772 119.349 85.0889 120.628 84.3756 121.699C83.6687 122.734 82.8819 123.586 82.0152 124.256C81.1912 124.896 80.1303 125.606 78.8326 126.387C77.4131 127.222 76.3458 127.968 75.6306 128.628C74.9218 129.25 74.4807 130.052 74.3073 131.031L64.6235 129.323ZM66.9218 144.538C65.1446 144.224 63.772 143.421 62.8041 142.129C61.8426 140.8 61.5032 139.338 61.7858 137.742C62.0749 136.11 62.8747 134.867 64.1853 134.014C65.5322 133.167 67.1124 132.903 68.9258 133.223C70.7393 133.543 72.1332 134.331 73.1075 135.587C74.0819 136.844 74.4245 138.288 74.1355 139.919C73.8528 141.515 73.0316 142.773 71.6719 143.692C70.3186 144.576 68.7352 144.857 66.9218 144.538Z" fill="white"/>
<path d="M64.6235 129.323L64.1663 129.243L64.0853 129.7L64.5425 129.78L64.6235 129.323ZM66.6104 125.074L66.9413 125.399L66.9459 125.394L66.6104 125.074ZM70.786 121.771L71.0377 122.161L71.0382 122.161L70.786 121.771ZM73.5589 119.736L73.8702 120.08L73.8789 120.072L73.5589 119.736ZM73.7891 114.952L73.45 115.269L73.4573 115.277L73.465 115.285L73.7891 114.952ZM66.3805 113.702L66.2226 113.266L66.2167 113.268L66.3805 113.702ZM63.0409 116.086L62.7533 116.451L63.1038 116.727L63.3939 116.387L63.0409 116.086ZM55.7055 110.305L55.3519 110.004L55.0396 110.372L55.4179 110.67L55.7055 110.305ZM63.0666 105.489L63.2057 105.931V105.931L63.0666 105.489ZM83.1988 109.656L82.8714 109.985L82.8767 109.99L83.1988 109.656ZM84.3756 121.699L84.759 121.961L84.762 121.956L84.3756 121.699ZM82.0152 124.256L81.7314 123.889L81.7305 123.89L82.0152 124.256ZM78.8326 126.387L79.0677 126.787L79.0718 126.785L78.8326 126.387ZM75.6306 128.628L75.9371 128.976L75.9452 128.969L75.6306 128.628ZM74.3073 131.031L74.2263 131.488L74.6835 131.568L74.7645 131.111L74.3073 131.031ZM62.8041 142.129L62.4278 142.401L62.4323 142.407L62.8041 142.129ZM64.1853 134.014L63.9383 133.621L63.9321 133.625L64.1853 134.014ZM73.1075 135.587L72.7405 135.872V135.872L73.1075 135.587ZM71.6719 143.692L71.9256 144.081L71.9319 144.077L71.6719 143.692ZM65.0806 129.404C65.3901 127.657 66.0203 126.335 66.9413 125.399L66.2795 124.748C65.1935 125.852 64.4991 127.363 64.1663 129.243L65.0806 129.404ZM66.9459 125.394C67.9223 124.373 69.2822 123.295 71.0377 122.161L70.5342 121.381C68.7421 122.539 67.3183 123.662 66.2749 124.753L66.9459 125.394ZM71.0382 122.161C72.2715 121.362 73.2197 120.668 73.8701 120.08L73.2477 119.391C72.6513 119.93 71.7509 120.593 70.5337 121.382L71.0382 122.161ZM73.8789 120.072C74.5712 119.413 75.0088 118.646 75.1631 117.775L74.2488 117.614C74.1333 118.266 73.8062 118.86 73.2389 119.4L73.8789 120.072ZM75.1631 117.775C75.3776 116.564 75.0152 115.498 74.1131 114.619L73.465 115.285C74.158 115.959 74.4069 116.721 74.2488 117.614L75.1631 117.775ZM74.1282 114.635C73.2866 113.736 72.0997 113.173 70.616 112.912L70.4541 113.826C71.7994 114.063 72.7819 114.556 73.45 115.269L74.1282 114.635ZM70.616 112.912C69.0894 112.642 67.6219 112.758 66.2226 113.266L66.5385 114.138C67.777 113.689 69.0792 113.583 70.4541 113.826L70.616 112.912ZM66.2167 113.268C64.8564 113.781 63.6794 114.624 62.6879 115.785L63.3939 116.387C64.29 115.338 65.3393 114.591 66.5443 114.136L66.2167 113.268ZM63.3285 115.721L55.9931 109.94L55.4179 110.67L62.7533 116.451L63.3285 115.721ZM56.0591 110.606C57.9366 108.399 60.3147 106.841 63.2057 105.931L62.9275 105.046C59.877 106.006 57.3478 107.659 55.3519 110.004L56.0591 110.606ZM63.2057 105.931C66.0894 105.024 69.4191 104.892 73.2084 105.561L73.3704 104.646C69.4707 103.959 65.9851 104.084 62.9275 105.046L63.2057 105.931ZM73.2084 105.561C77.4638 106.311 80.6686 107.798 82.8715 109.985L83.526 109.326C81.1485 106.966 77.747 105.418 73.3704 104.646L73.2084 105.561ZM82.8767 109.99C85.0965 112.125 85.9285 114.704 85.3834 117.782L86.2978 117.943C86.896 114.566 85.9668 111.673 83.5208 109.321L82.8767 109.99ZM85.3834 117.782C85.1293 119.216 84.6614 120.433 83.9892 121.442L84.762 121.956C85.5165 120.824 86.0252 119.482 86.2978 117.943L85.3834 117.782ZM83.9923 121.438C83.3089 122.438 82.5545 123.253 81.7314 123.889L82.299 124.623C83.2093 123.92 84.0285 123.03 84.7589 121.961L83.9923 121.438ZM81.7305 123.89C80.9259 124.514 79.8817 125.214 78.5933 125.99L79.0718 126.785C80.3789 125.998 81.4565 125.278 82.2999 124.622L81.7305 123.89ZM78.5975 125.987C77.1662 126.828 76.0665 127.595 75.316 128.286L75.9452 128.969C76.6251 128.342 77.66 127.615 79.0676 126.787L78.5975 125.987ZM75.3242 128.279C74.5317 128.976 74.0409 129.873 73.8501 130.95L74.7645 131.111C74.9206 130.23 75.312 129.525 75.937 128.976L75.3242 128.279ZM74.3883 130.574L64.7044 128.866L64.5425 129.78L74.2263 131.488L74.3883 130.574ZM67.0027 144.08C65.327 143.785 64.0646 143.037 63.1759 141.85L62.4323 142.407C63.4794 143.805 64.9622 144.663 66.8408 144.995L67.0027 144.08ZM63.1804 141.856C62.2915 140.628 61.9826 139.293 62.243 137.823L61.3286 137.661C61.0238 139.382 61.3938 140.972 62.4278 142.401L63.1804 141.856ZM62.243 137.823C62.5111 136.309 63.2427 135.182 64.4385 134.403L63.9321 133.625C62.5067 134.553 61.6386 135.911 61.3286 137.661L62.243 137.823ZM64.4323 134.407C65.6664 133.631 67.1258 133.377 68.8449 133.68L69.0068 132.766C67.099 132.43 65.398 132.703 63.9383 133.621L64.4323 134.407ZM68.8449 133.68C70.5639 133.983 71.8478 134.721 72.7405 135.872L73.4745 135.303C72.4186 133.941 70.9147 133.102 69.0068 132.766L68.8449 133.68ZM72.7405 135.872C73.6308 137.02 73.9455 138.33 73.6783 139.839L74.5926 140C74.9035 138.245 74.5329 136.667 73.4745 135.303L72.7405 135.872ZM73.6783 139.839C73.4179 141.309 72.669 142.458 71.412 143.308L71.9319 144.077C73.3943 143.088 74.2878 141.721 74.5926 140L73.6783 139.839ZM71.4183 143.304C70.1777 144.113 68.7175 144.383 67.0027 144.08L66.8408 144.995C68.7529 145.332 70.4595 145.038 71.9255 144.081L71.4183 143.304Z" fill="#202027" mask="url(#path-16-outside-4_18933_1083)"/>
<rect x="0.202599" y="0.28958" width="96.1033" height="128.304" rx="19.75" transform="matrix(0.984808 0.173648 -0.174411 0.984673 134.703 70.7473)" fill="#BCEC30"/>
<rect x="0.202599" y="0.28958" width="96.1033" height="128.304" rx="19.75" transform="matrix(0.984808 0.173648 -0.174411 0.984673 134.703 70.7473)" stroke="#202027" stroke-width="0.5"/>
<mask id="path-19-outside-5_18933_1083" maskUnits="userSpaceOnUse" x="153.827" y="122.831" width="32.5198" height="38.1674" fill="black">
<rect fill="white" x="153.827" y="122.831" width="32.5198" height="38.1674"/>
<path d="M166.474 145.985C166.733 144.522 167.267 143.379 168.077 142.556C168.892 141.704 170.015 140.816 171.446 139.892C172.434 139.252 173.18 138.704 173.683 138.25C174.191 137.766 174.499 137.217 174.608 136.603C174.758 135.755 174.512 135.017 173.868 134.391C173.259 133.74 172.384 133.315 171.243 133.113C170.073 132.907 168.956 132.997 167.892 133.382C166.857 133.773 165.959 134.414 165.197 135.306L159.279 130.642C160.842 128.805 162.821 127.51 165.218 126.756C167.615 126.002 170.364 125.899 173.465 126.445C176.947 127.059 179.612 128.283 181.46 130.118C183.342 131.928 184.052 134.135 183.591 136.739C183.378 137.938 182.985 138.97 182.409 139.834C181.839 140.669 181.204 141.356 180.505 141.897C179.84 142.413 178.984 142.986 177.937 143.616C176.792 144.289 175.931 144.892 175.354 145.423C174.782 145.926 174.426 146.572 174.286 147.362L166.474 145.985ZM168.328 158.259C166.894 158.006 165.787 157.358 165.006 156.315C164.231 155.243 163.957 154.064 164.185 152.776C164.418 151.46 165.063 150.457 166.121 149.769C167.207 149.086 168.482 148.873 169.945 149.131C171.408 149.389 172.532 150.025 173.319 151.038C174.105 152.052 174.381 153.217 174.148 154.533C173.92 155.82 173.257 156.835 172.16 157.577C171.069 158.289 169.791 158.517 168.328 158.259Z"/>
</mask>
<path d="M166.474 145.985C166.733 144.522 167.267 143.379 168.077 142.556C168.892 141.704 170.015 140.816 171.446 139.892C172.434 139.252 173.18 138.704 173.683 138.25C174.191 137.766 174.499 137.217 174.608 136.603C174.758 135.755 174.512 135.017 173.868 134.391C173.259 133.74 172.384 133.315 171.243 133.113C170.073 132.907 168.956 132.997 167.892 133.382C166.857 133.773 165.959 134.414 165.197 135.306L159.279 130.642C160.842 128.805 162.821 127.51 165.218 126.756C167.615 126.002 170.364 125.899 173.465 126.445C176.947 127.059 179.612 128.283 181.46 130.118C183.342 131.928 184.052 134.135 183.591 136.739C183.378 137.938 182.985 138.97 182.409 139.834C181.839 140.669 181.204 141.356 180.505 141.897C179.84 142.413 178.984 142.986 177.937 143.616C176.792 144.289 175.931 144.892 175.354 145.423C174.782 145.926 174.426 146.572 174.286 147.362L166.474 145.985ZM168.328 158.259C166.894 158.006 165.787 157.358 165.006 156.315C164.231 155.243 163.957 154.064 164.185 152.776C164.418 151.46 165.063 150.457 166.121 149.769C167.207 149.086 168.482 148.873 169.945 149.131C171.408 149.389 172.532 150.025 173.319 151.038C174.105 152.052 174.381 153.217 174.148 154.533C173.92 155.82 173.257 156.835 172.16 157.577C171.069 158.289 169.791 158.517 168.328 158.259Z" fill="white"/>
<path d="M166.474 145.985L166.017 145.904L165.936 146.361L166.393 146.442L166.474 145.985ZM168.077 142.556L168.408 142.882L168.412 142.877L168.077 142.556ZM171.446 139.892L171.697 140.282L171.698 140.281L171.446 139.892ZM173.683 138.25L173.994 138.594L174.003 138.586L173.683 138.25ZM173.868 134.391L173.529 134.708L173.537 134.716L173.544 134.723L173.868 134.391ZM167.892 133.382L167.734 132.946L167.728 132.948L167.892 133.382ZM165.197 135.306L164.91 135.67L165.26 135.947L165.55 135.607L165.197 135.306ZM159.279 130.642L158.926 130.341L158.614 130.708L158.992 131.006L159.279 130.642ZM165.218 126.756L165.357 127.199L165.357 127.199L165.218 126.756ZM181.46 130.118L181.132 130.447L181.138 130.452L181.46 130.118ZM182.409 139.834L182.792 140.096L182.795 140.091L182.409 139.834ZM180.505 141.897L180.221 141.53L180.22 141.53L180.505 141.897ZM177.937 143.616L178.172 144.016L178.176 144.014L177.937 143.616ZM175.354 145.423L175.661 145.772L175.669 145.765L175.354 145.423ZM174.286 147.362L174.205 147.819L174.663 147.9L174.744 147.443L174.286 147.362ZM165.006 156.315L164.63 156.588L164.634 156.594L165.006 156.315ZM166.121 149.769L165.873 149.376L165.867 149.38L166.121 149.769ZM173.319 151.038L172.952 151.323V151.323L173.319 151.038ZM172.16 157.577L172.414 157.966L172.42 157.961L172.16 157.577ZM166.931 146.065C167.179 144.668 167.681 143.621 168.408 142.882L167.746 142.231C166.854 143.137 166.288 144.375 166.017 145.904L166.931 146.065ZM168.412 142.877C169.194 142.06 170.285 141.194 171.697 140.282L171.194 139.502C169.745 140.438 168.59 141.349 167.741 142.236L168.412 142.877ZM171.698 140.281C172.694 139.636 173.464 139.073 173.994 138.594L173.371 137.906C172.896 138.336 172.174 138.867 171.193 139.502L171.698 140.281ZM174.003 138.586C174.573 138.043 174.937 137.407 175.065 136.684L174.151 136.522C174.061 137.027 173.808 137.49 173.363 137.914L174.003 138.586ZM175.065 136.684C175.244 135.676 174.94 134.786 174.192 134.058L173.544 134.723C174.083 135.248 174.273 135.833 174.151 136.522L175.065 136.684ZM174.207 134.073C173.512 133.33 172.534 132.87 171.324 132.656L171.162 133.57C172.234 133.759 173.007 134.15 173.529 134.708L174.207 134.073ZM171.324 132.656C170.078 132.436 168.878 132.531 167.734 132.946L168.049 133.819C169.033 133.462 170.068 133.377 171.162 133.57L171.324 132.656ZM167.728 132.948C166.615 133.368 165.653 134.057 164.844 135.004L165.55 135.607C166.264 134.771 167.098 134.178 168.055 133.816L167.728 132.948ZM165.485 134.941L159.567 130.277L158.992 131.006L164.91 135.67L165.485 134.941ZM159.633 130.942C161.136 129.175 163.04 127.928 165.357 127.199L165.079 126.313C162.603 127.092 160.547 128.435 158.926 130.341L159.633 130.942ZM165.357 127.199C167.667 126.472 170.338 126.365 173.384 126.903L173.546 125.988C170.389 125.432 167.562 125.532 165.079 126.313L165.357 127.199ZM173.384 126.903C176.806 127.506 179.372 128.7 181.132 130.447L181.787 129.788C179.852 127.867 177.089 126.613 173.546 125.988L173.384 126.903ZM181.138 130.452C182.907 132.154 183.568 134.204 183.134 136.658L184.048 136.819C184.536 134.065 183.777 131.702 181.782 129.783L181.138 130.452ZM183.134 136.658C182.931 137.805 182.557 138.775 182.023 139.577L182.795 140.091C183.412 139.165 183.826 138.071 184.048 136.819L183.134 136.658ZM182.026 139.572C181.479 140.373 180.877 141.023 180.221 141.53L180.789 142.264C181.531 141.69 182.199 140.965 182.792 140.096L182.026 139.572ZM180.22 141.53C179.575 142.031 178.736 142.594 177.698 143.218L178.176 144.014C179.233 143.378 180.105 142.795 180.79 142.263L180.22 141.53ZM177.702 143.216C176.545 143.896 175.652 144.518 175.039 145.082L175.669 145.765C176.21 145.265 177.039 144.682 178.172 144.016L177.702 143.216ZM175.048 145.075C174.392 145.651 173.986 146.394 173.829 147.282L174.744 147.443C174.866 146.751 175.172 146.201 175.66 145.772L175.048 145.075ZM174.367 146.905L166.555 145.527L166.393 146.442L174.205 147.819L174.367 146.905ZM168.409 157.802C167.077 157.567 166.08 156.974 165.378 156.037L164.634 156.594C165.494 157.742 166.712 158.445 168.247 158.716L168.409 157.802ZM165.383 156.043C164.679 155.071 164.436 154.019 164.642 152.857L163.728 152.696C163.477 154.109 163.782 155.415 164.63 156.588L165.383 156.043ZM164.642 152.857C164.854 151.659 165.431 150.772 166.374 150.158L165.867 149.38C164.695 150.143 163.982 151.261 163.728 152.696L164.642 152.857ZM166.368 150.162C167.341 149.549 168.495 149.347 169.864 149.588L170.026 148.674C168.469 148.399 167.073 148.622 165.874 149.376L166.368 150.162ZM169.864 149.588C171.233 149.829 172.247 150.414 172.952 151.323L173.686 150.754C172.818 149.635 171.583 148.948 170.026 148.674L169.864 149.588ZM172.952 151.323C173.654 152.228 173.902 153.259 173.691 154.453L174.605 154.614C174.86 153.174 174.556 151.875 173.686 150.754L172.952 151.323ZM173.691 154.453C173.485 155.614 172.895 156.52 171.9 157.192L172.42 157.961C173.62 157.15 174.355 156.027 174.605 154.614L173.691 154.453ZM171.907 157.188C170.928 157.827 169.773 158.042 168.409 157.802L168.247 158.716C169.809 158.991 171.209 158.752 172.414 157.965L171.907 157.188Z" fill="#202027" mask="url(#path-19-outside-5_18933_1083)"/>
<rect x="0.202599" y="0.28958" width="96.1033" height="128.304" rx="19.75" transform="matrix(0.984808 0.173648 -0.174411 0.984673 235.423 88.5071)" fill="#BCEC30"/>
<rect x="0.202599" y="0.28958" width="96.1033" height="128.304" rx="19.75" transform="matrix(0.984808 0.173648 -0.174411 0.984673 235.423 88.5071)" stroke="#202027" stroke-width="0.5"/>
<mask id="path-22-outside-6_18933_1083" maskUnits="userSpaceOnUse" x="249.911" y="136.942" width="40.6343" height="46.2756" fill="black">
<rect fill="white" x="249.911" y="136.942" width="40.6343" height="46.2756"/>
<path d="M266.064 164.842C266.385 163.029 267.047 161.613 268.051 160.593C269.061 159.537 270.453 158.436 272.226 157.29C273.452 156.497 274.376 155.818 274.999 155.255C275.629 154.656 276.011 153.975 276.146 153.213C276.333 152.162 276.027 151.248 275.229 150.471C274.475 149.665 273.39 149.137 271.975 148.888C270.525 148.632 269.14 148.743 267.821 149.221C266.538 149.706 265.425 150.5 264.481 151.605L257.146 145.824C259.083 143.548 261.536 141.943 264.507 141.008C267.478 140.073 270.885 139.945 274.73 140.623C279.046 141.384 282.349 142.901 284.639 145.175C286.972 147.419 287.853 150.154 287.281 153.382C287.018 154.869 286.529 156.148 285.816 157.218C285.109 158.253 284.322 159.105 283.456 159.775C282.632 160.415 281.571 161.126 280.273 161.907C278.854 162.741 277.786 163.488 277.071 164.147C276.362 164.77 275.921 165.571 275.748 166.55L266.064 164.842ZM268.362 180.057C266.585 179.743 265.212 178.94 264.245 177.648C263.283 176.319 262.944 174.857 263.226 173.261C263.515 171.629 264.315 170.387 265.626 169.533C266.973 168.686 268.553 168.423 270.366 168.742C272.18 169.062 273.574 169.85 274.548 171.106C275.522 172.363 275.865 173.807 275.576 175.439C275.293 177.034 274.472 178.292 273.112 179.212C271.759 180.095 270.176 180.377 268.362 180.057Z"/>
</mask>
<path d="M266.064 164.842C266.385 163.029 267.047 161.613 268.051 160.593C269.061 159.537 270.453 158.436 272.226 157.29C273.452 156.497 274.376 155.818 274.999 155.255C275.629 154.656 276.011 153.975 276.146 153.213C276.333 152.162 276.027 151.248 275.229 150.471C274.475 149.665 273.39 149.137 271.975 148.888C270.525 148.632 269.14 148.743 267.821 149.221C266.538 149.706 265.425 150.5 264.481 151.605L257.146 145.824C259.083 143.548 261.536 141.943 264.507 141.008C267.478 140.073 270.885 139.945 274.73 140.623C279.046 141.384 282.349 142.901 284.639 145.175C286.972 147.419 287.853 150.154 287.281 153.382C287.018 154.869 286.529 156.148 285.816 157.218C285.109 158.253 284.322 159.105 283.456 159.775C282.632 160.415 281.571 161.126 280.273 161.907C278.854 162.741 277.786 163.488 277.071 164.147C276.362 164.77 275.921 165.571 275.748 166.55L266.064 164.842ZM268.362 180.057C266.585 179.743 265.212 178.94 264.245 177.648C263.283 176.319 262.944 174.857 263.226 173.261C263.515 171.629 264.315 170.387 265.626 169.533C266.973 168.686 268.553 168.423 270.366 168.742C272.18 169.062 273.574 169.85 274.548 171.106C275.522 172.363 275.865 173.807 275.576 175.439C275.293 177.034 274.472 178.292 273.112 179.212C271.759 180.095 270.176 180.377 268.362 180.057Z" fill="white"/>
<path d="M266.064 164.842L265.607 164.762L265.526 165.219L265.983 165.3L266.064 164.842ZM268.051 160.593L268.382 160.918L268.386 160.914L268.051 160.593ZM272.226 157.29L272.478 157.68L272.479 157.68L272.226 157.29ZM274.999 155.255L275.311 155.599L275.319 155.591L274.999 155.255ZM275.229 150.471L274.89 150.789L274.898 150.797L274.905 150.804L275.229 150.471ZM267.821 149.221L267.663 148.785L267.657 148.787L267.821 149.221ZM264.481 151.605L264.194 151.97L264.544 152.246L264.834 151.907L264.481 151.605ZM257.146 145.824L256.792 145.524L256.48 145.891L256.858 146.189L257.146 145.824ZM264.507 141.008L264.646 141.451V141.451L264.507 141.008ZM284.639 145.175L284.312 145.504L284.317 145.509L284.639 145.175ZM285.816 157.218L286.199 157.48L286.202 157.476L285.816 157.218ZM283.456 159.775L283.172 159.408L283.171 159.409L283.456 159.775ZM280.273 161.907L280.508 162.307L280.512 162.304L280.273 161.907ZM277.071 164.147L277.378 164.495L277.386 164.488L277.071 164.147ZM275.748 166.55L275.667 167.007L276.124 167.088L276.205 166.631L275.748 166.55ZM264.245 177.648L263.868 177.92L263.873 177.926L264.245 177.648ZM265.626 169.533L265.379 169.14L265.373 169.144L265.626 169.533ZM274.548 171.106L274.181 171.391V171.391L274.548 171.106ZM273.112 179.212L273.366 179.6L273.372 179.596L273.112 179.212ZM266.521 164.923C266.831 163.176 267.461 161.854 268.382 160.918L267.72 160.268C266.634 161.371 265.94 162.883 265.607 164.762L266.521 164.923ZM268.386 160.914C269.363 159.893 270.723 158.814 272.478 157.68L271.975 156.901C270.183 158.058 268.759 159.181 267.715 160.272L268.386 160.914ZM272.479 157.68C273.712 156.881 274.66 156.187 275.31 155.599L274.688 154.911C274.092 155.45 273.191 156.112 271.974 156.901L272.479 157.68ZM275.319 155.591C276.012 154.932 276.449 154.165 276.604 153.294L275.689 153.133C275.574 153.785 275.247 154.379 274.679 154.919L275.319 155.591ZM276.604 153.294C276.818 152.084 276.456 151.017 275.554 150.139L274.905 150.804C275.598 151.479 275.847 152.24 275.689 153.133L276.604 153.294ZM275.569 150.154C274.727 149.255 273.54 148.692 272.056 148.431L271.895 149.345C273.24 149.582 274.222 150.075 274.89 150.789L275.569 150.154ZM272.056 148.431C270.53 148.162 269.062 148.278 267.663 148.785L267.979 149.658C269.217 149.209 270.52 149.103 271.895 149.345L272.056 148.431ZM267.657 148.787C266.297 149.301 265.12 150.143 264.128 151.304L264.834 151.907C265.73 150.857 266.78 150.11 267.985 149.655L267.657 148.787ZM264.769 151.241L257.434 145.46L256.858 146.189L264.194 151.97L264.769 151.241ZM257.5 146.125C259.377 143.918 261.755 142.36 264.646 141.451L264.368 140.565C261.317 141.525 258.788 143.178 256.792 145.524L257.5 146.125ZM264.646 141.451C267.53 140.543 270.86 140.412 274.649 141.08L274.811 140.166C270.911 139.478 267.426 139.603 264.368 140.565L264.646 141.451ZM274.649 141.08C278.904 141.83 282.109 143.317 284.312 145.504L284.966 144.845C282.589 142.485 279.187 140.937 274.811 140.166L274.649 141.08ZM284.317 145.509C286.537 147.644 287.369 150.224 286.824 153.301L287.738 153.462C288.336 150.085 287.407 147.193 284.961 144.84L284.317 145.509ZM286.824 153.301C286.57 154.736 286.102 155.952 285.43 156.961L286.202 157.476C286.957 156.343 287.466 155.001 287.738 153.462L286.824 153.301ZM285.433 156.957C284.749 157.957 283.995 158.772 283.172 159.408L283.739 160.142C284.65 159.439 285.469 158.549 286.199 157.48L285.433 156.957ZM283.171 159.409C282.366 160.034 281.322 160.734 280.034 161.509L280.512 162.304C281.819 161.518 282.897 160.797 283.74 160.142L283.171 159.409ZM280.038 161.507C278.607 162.348 277.507 163.114 276.756 163.806L277.386 164.488C278.066 163.861 279.1 163.134 280.508 162.307L280.038 161.507ZM276.765 163.798C275.972 164.495 275.481 165.392 275.291 166.469L276.205 166.631C276.361 165.749 276.752 165.045 277.377 164.495L276.765 163.798ZM275.829 166.093L266.145 164.385L265.983 165.3L275.667 167.007L275.829 166.093ZM268.443 179.6C266.767 179.304 265.505 178.556 264.616 177.37L263.873 177.926C264.92 179.325 266.403 180.183 268.281 180.514L268.443 179.6ZM264.621 177.376C263.732 176.147 263.423 174.812 263.683 173.342L262.769 173.181C262.464 174.902 262.834 176.491 263.868 177.92L264.621 177.376ZM263.683 173.342C263.952 171.828 264.683 170.701 265.879 169.922L265.373 169.144C263.947 170.073 263.079 171.431 262.769 173.181L263.683 173.342ZM265.873 169.926C267.107 169.15 268.566 168.896 270.285 169.2L270.447 168.285C268.539 167.949 266.838 168.222 265.379 169.14L265.873 169.926ZM270.285 169.2C272.004 169.503 273.288 170.24 274.181 171.391L274.915 170.822C273.859 169.46 272.355 168.622 270.447 168.285L270.285 169.2ZM274.181 171.391C275.071 172.539 275.386 173.849 275.119 175.358L276.033 175.519C276.344 173.765 275.973 172.187 274.915 170.822L274.181 171.391ZM275.119 175.358C274.858 176.828 274.109 177.977 272.852 178.827L273.372 179.596C274.835 178.607 275.728 177.241 276.033 175.519L275.119 175.358ZM272.859 178.823C271.618 179.633 270.158 179.902 268.443 179.6L268.281 180.514C270.193 180.851 271.9 180.557 273.366 179.6L272.859 178.823Z" fill="#202027" mask="url(#path-22-outside-6_18933_1083)"/>
<rect x="0.202599" y="0.28958" width="96.1033" height="128.304" rx="19.75" transform="matrix(0.984808 0.173648 -0.174411 0.984673 336.144 106.267)" fill="#BCEC30"/>
<rect x="0.202599" y="0.28958" width="96.1033" height="128.304" rx="19.75" transform="matrix(0.984808 0.173648 -0.174411 0.984673 336.144 106.267)" stroke="#202027" stroke-width="0.5"/>
<rect x="0.202599" y="0.28958" width="96.1033" height="128.304" rx="19.75" transform="matrix(0.984808 0.173648 -0.174411 0.984673 -90.0714 167.562)" fill="#BCEC30"/>
<rect x="0.202599" y="0.28958" width="96.1033" height="128.304" rx="19.75" transform="matrix(0.984808 0.173648 -0.174411 0.984673 -90.0714 167.562)" stroke="#202027" stroke-width="0.5"/>
<rect x="0.202599" y="0.28958" width="96.1033" height="128.304" rx="19.75" transform="matrix(0.984808 0.173648 -0.174411 0.984673 10.6493 185.322)" fill="#BCEC30"/>
<rect x="0.202599" y="0.28958" width="96.1033" height="128.304" rx="19.75" transform="matrix(0.984808 0.173648 -0.174411 0.984673 10.6493 185.322)" stroke="#202027" stroke-width="0.5"/>
<mask id="path-27-outside-7_18933_1083" maskUnits="userSpaceOnUse" x="25.1369" y="233.757" width="40.6343" height="46.2756" fill="black">
<rect fill="white" x="25.1369" y="233.757" width="40.6343" height="46.2756"/>
<path d="M41.29 261.657C41.6111 259.844 42.2734 258.427 43.2769 257.407C44.2868 256.351 45.6787 255.251 47.4525 254.105C48.6777 253.311 49.602 252.633 50.2254 252.07C50.8552 251.47 51.2376 250.789 51.3725 250.028C51.5587 248.976 51.2531 248.062 50.4556 247.286C49.7007 246.48 48.6161 245.952 47.2016 245.702C45.7508 245.447 44.366 245.558 43.047 246.036C41.7644 246.52 40.6512 247.315 39.7074 248.42L32.372 242.639C34.3087 240.363 36.7624 238.757 39.7331 237.822C42.7038 236.888 46.1114 236.759 49.9559 237.437C54.2719 238.198 57.575 239.716 59.8653 241.989C62.1982 244.233 63.0788 246.969 62.5071 250.196C62.2437 251.683 61.7554 252.962 61.0421 254.033C60.3352 255.068 59.5484 255.92 58.6817 256.59C57.8577 257.23 56.7968 257.94 55.4991 258.721C54.0796 259.555 53.0123 260.302 52.2971 260.961C51.5884 261.584 51.1473 262.385 50.9738 263.364L41.29 261.657ZM43.5883 276.871C41.8111 276.558 40.4385 275.755 39.4706 274.462C38.5091 273.134 38.1697 271.671 38.4523 270.076C38.7414 268.444 39.5412 267.201 40.8518 266.348C42.1987 265.501 43.7789 265.237 45.5923 265.557C47.4058 265.877 48.7997 266.665 49.774 267.921C50.7484 269.177 51.091 270.621 50.802 272.253C50.5193 273.849 49.6981 275.106 48.3384 276.026C46.9851 276.909 45.4017 277.191 43.5883 276.871Z"/>
</mask>
<path d="M41.29 261.657C41.6111 259.844 42.2734 258.427 43.2769 257.407C44.2868 256.351 45.6787 255.251 47.4525 254.105C48.6777 253.311 49.602 252.633 50.2254 252.07C50.8552 251.47 51.2376 250.789 51.3725 250.028C51.5587 248.976 51.2531 248.062 50.4556 247.286C49.7007 246.48 48.6161 245.952 47.2016 245.702C45.7508 245.447 44.366 245.558 43.047 246.036C41.7644 246.52 40.6512 247.315 39.7074 248.42L32.372 242.639C34.3087 240.363 36.7624 238.757 39.7331 237.822C42.7038 236.888 46.1114 236.759 49.9559 237.437C54.2719 238.198 57.575 239.716 59.8653 241.989C62.1982 244.233 63.0788 246.969 62.5071 250.196C62.2437 251.683 61.7554 252.962 61.0421 254.033C60.3352 255.068 59.5484 255.92 58.6817 256.59C57.8577 257.23 56.7968 257.94 55.4991 258.721C54.0796 259.555 53.0123 260.302 52.2971 260.961C51.5884 261.584 51.1473 262.385 50.9738 263.364L41.29 261.657ZM43.5883 276.871C41.8111 276.558 40.4385 275.755 39.4706 274.462C38.5091 273.134 38.1697 271.671 38.4523 270.076C38.7414 268.444 39.5412 267.201 40.8518 266.348C42.1987 265.501 43.7789 265.237 45.5923 265.557C47.4058 265.877 48.7997 266.665 49.774 267.921C50.7484 269.177 51.091 270.621 50.802 272.253C50.5193 273.849 49.6981 275.106 48.3384 276.026C46.9851 276.909 45.4017 277.191 43.5883 276.871Z" fill="white"/>
<path d="M41.29 261.657L40.8328 261.576L40.7518 262.033L41.209 262.114L41.29 261.657ZM43.2769 257.407L43.6078 257.733L43.6124 257.728L43.2769 257.407ZM47.4525 254.105L47.7042 254.495L47.7047 254.494L47.4525 254.105ZM50.2254 252.07L50.5367 252.414L50.5454 252.406L50.2254 252.07ZM50.4556 247.286L50.1165 247.603L50.1238 247.611L50.1315 247.619L50.4556 247.286ZM43.047 246.036L42.8891 245.599L42.8832 245.601L43.047 246.036ZM39.7074 248.42L39.4198 248.784L39.7703 249.061L40.0604 248.721L39.7074 248.42ZM32.372 242.639L32.0185 242.338L31.7061 242.705L32.0844 243.003L32.372 242.639ZM39.7331 237.822L39.8722 238.265V238.265L39.7331 237.822ZM59.8653 241.989L59.5379 242.319L59.5432 242.324L59.8653 241.989ZM61.0421 254.033L61.4255 254.295L61.4285 254.29L61.0421 254.033ZM58.6817 256.59L58.3979 256.223L58.397 256.223L58.6817 256.59ZM55.4991 258.721L55.7342 259.121L55.7383 259.119L55.4991 258.721ZM52.2971 260.961L52.6036 261.31L52.6117 261.302L52.2971 260.961ZM50.9738 263.364L50.8929 263.822L51.35 263.902L51.431 263.445L50.9738 263.364ZM39.4706 274.462L39.0943 274.735L39.0989 274.741L39.4706 274.462ZM40.8518 266.348L40.6048 265.955L40.5986 265.959L40.8518 266.348ZM49.774 267.921L49.407 268.206V268.206L49.774 267.921ZM48.3384 276.026L48.5921 276.415L48.5984 276.41L48.3384 276.026ZM41.7472 261.737C42.0566 259.99 42.6868 258.669 43.6078 257.733L42.946 257.082C41.8601 258.186 41.1656 259.697 40.8328 261.576L41.7472 261.737ZM43.6124 257.728C44.5888 256.707 45.9487 255.629 47.7042 254.495L47.2007 253.715C45.4086 254.873 43.9848 255.996 42.9414 257.087L43.6124 257.728ZM47.7047 254.494C48.938 253.695 49.8862 253.001 50.5366 252.414L49.9142 251.725C49.3179 252.264 48.4174 252.927 47.2002 253.715L47.7047 254.494ZM50.5454 252.406C51.2377 251.747 51.6754 250.98 51.8296 250.109L50.9153 249.947C50.7998 250.599 50.4727 251.193 49.9054 251.733L50.5454 252.406ZM51.8296 250.109C52.0441 248.898 51.6817 247.831 50.7796 246.953L50.1315 247.619C50.8245 248.293 51.0734 249.055 50.9153 249.947L51.8296 250.109ZM50.7947 246.969C49.9531 246.07 48.7662 245.507 47.2825 245.245L47.1206 246.16C48.4659 246.397 49.4484 246.89 50.1165 247.603L50.7947 246.969ZM47.2825 245.245C45.7559 244.976 44.2884 245.092 42.8891 245.599L43.205 246.472C44.4435 246.023 45.7457 245.917 47.1206 246.16L47.2825 245.245ZM42.8832 245.601C41.5229 246.115 40.3459 246.958 39.3544 248.119L40.0604 248.721C40.9565 247.672 42.0058 246.925 43.2108 246.47L42.8832 245.601ZM39.995 248.055L32.6596 242.274L32.0844 243.003L39.4198 248.784L39.995 248.055ZM32.7256 242.939C34.6031 240.733 36.9812 239.175 39.8722 238.265L39.594 237.38C36.5435 238.339 34.0143 239.992 32.0185 242.338L32.7256 242.939ZM39.8722 238.265C42.7559 237.358 46.0856 237.226 49.8749 237.894L50.0369 236.98C46.1372 236.292 42.6516 236.418 39.594 237.38L39.8722 238.265ZM49.8749 237.894C54.1303 238.645 57.3351 240.132 59.538 242.319L60.1925 241.66C57.815 239.299 54.4135 237.752 50.0369 236.98L49.8749 237.894ZM59.5432 242.324C61.763 244.459 62.595 247.038 62.0499 250.116L62.9643 250.277C63.5626 246.899 62.6333 244.007 60.1873 241.655L59.5432 242.324ZM62.0499 250.116C61.7958 251.55 61.3279 252.767 60.6557 253.776L61.4285 254.29C62.183 253.157 62.6917 251.816 62.9643 250.277L62.0499 250.116ZM60.6588 253.771C59.9754 254.771 59.221 255.586 58.3979 256.223L58.9656 256.957C59.8758 256.253 60.695 255.364 61.4254 254.294L60.6588 253.771ZM58.397 256.223C57.5924 256.848 56.5482 257.548 55.2598 258.323L55.7383 259.119C57.0455 258.332 58.123 257.611 58.9664 256.956L58.397 256.223ZM55.264 258.321C53.8327 259.162 52.7331 259.928 51.9825 260.62L52.6117 261.302C53.2916 260.676 54.3265 259.948 55.7341 259.121L55.264 258.321ZM51.9907 260.613C51.1982 261.309 50.7074 262.207 50.5166 263.284L51.431 263.445C51.5871 262.564 51.9785 261.859 52.6035 261.31L51.9907 260.613ZM51.0548 262.907L41.3709 261.2L41.209 262.114L50.8929 263.822L51.0548 262.907ZM43.6692 276.414C41.9935 276.119 40.7311 275.371 39.8424 274.184L39.0989 274.741C40.1459 276.139 41.6287 276.997 43.5073 277.328L43.6692 276.414ZM39.8469 274.19C38.958 272.962 38.6491 271.626 38.9095 270.156L37.9951 269.995C37.6903 271.716 38.0603 273.305 39.0943 274.735L39.8469 274.19ZM38.9095 270.156C39.1777 268.642 39.9092 267.515 41.105 266.737L40.5986 265.959C39.1732 266.887 38.3051 268.245 37.9951 269.995L38.9095 270.156ZM41.0988 266.741C42.3329 265.965 43.7923 265.711 45.5114 266.014L45.6733 265.1C43.7655 264.763 42.0645 265.037 40.6048 265.955L41.0988 266.741ZM45.5114 266.014C47.2304 266.317 48.5143 267.054 49.407 268.206L50.141 267.636C49.0851 266.275 47.5812 265.436 45.6733 265.1L45.5114 266.014ZM49.407 268.206C50.2973 269.353 50.612 270.664 50.3448 272.173L51.2591 272.334C51.57 270.579 51.1994 269.001 50.141 267.636L49.407 268.206ZM50.3448 272.173C50.0844 273.643 49.3355 274.791 48.0785 275.642L48.5984 276.41C50.0608 275.421 50.9543 274.055 51.2591 272.334L50.3448 272.173ZM48.0848 275.637C46.8442 276.447 45.384 276.716 43.6692 276.414L43.5073 277.328C45.4194 277.666 47.126 277.371 48.592 276.415L48.0848 275.637Z" fill="#202027" mask="url(#path-27-outside-7_18933_1083)"/>
<rect x="0.202599" y="0.28958" width="96.1033" height="128.304" rx="19.75" transform="matrix(0.984808 0.173648 -0.174411 0.984673 111.369 203.081)" fill="#BCEC30"/>
<rect x="0.202599" y="0.28958" width="96.1033" height="128.304" rx="19.75" transform="matrix(0.984808 0.173648 -0.174411 0.984673 111.369 203.081)" stroke="#202027" stroke-width="0.5"/>
<mask id="path-30-outside-8_18933_1083" maskUnits="userSpaceOnUse" x="125.857" y="251.516" width="40.6343" height="46.2756" fill="black">
<rect fill="white" x="125.857" y="251.516" width="40.6343" height="46.2756"/>
<path d="M142.01 279.416C142.331 277.603 142.993 276.187 143.997 275.167C145.007 274.111 146.398 273.01 148.172 271.864C149.397 271.071 150.322 270.392 150.945 269.829C151.575 269.23 151.957 268.549 152.092 267.787C152.278 266.736 151.973 265.822 151.175 265.045C150.42 264.239 149.336 263.711 147.921 263.462C146.471 263.206 145.086 263.317 143.767 263.795C142.484 264.28 141.371 265.074 140.427 266.179L133.092 260.398C135.028 258.122 137.482 256.517 140.453 255.582C143.423 254.647 146.831 254.519 150.676 255.197C154.992 255.958 158.295 257.475 160.585 259.749C162.918 261.993 163.799 264.728 163.227 267.956C162.963 269.443 162.475 270.721 161.762 271.792C161.055 272.827 160.268 273.679 159.401 274.349C158.577 274.989 157.517 275.7 156.219 276.481C154.799 277.315 153.732 278.062 153.017 278.721C152.308 279.344 151.867 280.145 151.694 281.124L142.01 279.416ZM144.308 294.631C142.531 294.317 141.158 293.514 140.19 292.222C139.229 290.893 138.889 289.431 139.172 287.835C139.461 286.203 140.261 284.961 141.572 284.107C142.918 283.26 144.499 282.997 146.312 283.316C148.126 283.636 149.519 284.424 150.494 285.68C151.468 286.937 151.811 288.381 151.522 290.013C151.239 291.608 150.418 292.866 149.058 293.786C147.705 294.669 146.121 294.951 144.308 294.631Z"/>
</mask>
<path d="M142.01 279.416C142.331 277.603 142.993 276.187 143.997 275.167C145.007 274.111 146.398 273.01 148.172 271.864C149.397 271.071 150.322 270.392 150.945 269.829C151.575 269.23 151.957 268.549 152.092 267.787C152.278 266.736 151.973 265.822 151.175 265.045C150.42 264.239 149.336 263.711 147.921 263.462C146.471 263.206 145.086 263.317 143.767 263.795C142.484 264.28 141.371 265.074 140.427 266.179L133.092 260.398C135.028 258.122 137.482 256.517 140.453 255.582C143.423 254.647 146.831 254.519 150.676 255.197C154.992 255.958 158.295 257.475 160.585 259.749C162.918 261.993 163.799 264.728 163.227 267.956C162.963 269.443 162.475 270.721 161.762 271.792C161.055 272.827 160.268 273.679 159.401 274.349C158.577 274.989 157.517 275.7 156.219 276.481C154.799 277.315 153.732 278.062 153.017 278.721C152.308 279.344 151.867 280.145 151.694 281.124L142.01 279.416ZM144.308 294.631C142.531 294.317 141.158 293.514 140.19 292.222C139.229 290.893 138.889 289.431 139.172 287.835C139.461 286.203 140.261 284.961 141.572 284.107C142.918 283.26 144.499 282.997 146.312 283.316C148.126 283.636 149.519 284.424 150.494 285.68C151.468 286.937 151.811 288.381 151.522 290.013C151.239 291.608 150.418 292.866 149.058 293.786C147.705 294.669 146.121 294.951 144.308 294.631Z" fill="white"/>
<path d="M142.01 279.416L141.553 279.336L141.472 279.793L141.929 279.874L142.01 279.416ZM143.997 275.167L144.328 275.492L144.332 275.488L143.997 275.167ZM148.172 271.864L148.424 272.254L148.424 272.254L148.172 271.864ZM150.945 269.829L151.256 270.173L151.265 270.165L150.945 269.829ZM151.175 265.045L150.836 265.363L150.844 265.371L150.851 265.378L151.175 265.045ZM143.767 263.795L143.609 263.359L143.603 263.361L143.767 263.795ZM140.427 266.179L140.14 266.544L140.49 266.82L140.78 266.481L140.427 266.179ZM133.092 260.398L132.738 260.098L132.426 260.465L132.804 260.763L133.092 260.398ZM140.453 255.582L140.592 256.025V256.025L140.453 255.582ZM160.585 259.749L160.258 260.078L160.263 260.083L160.585 259.749ZM161.762 271.792L162.145 272.054L162.148 272.049L161.762 271.792ZM159.401 274.349L159.118 273.982L159.117 273.983L159.401 274.349ZM156.219 276.481L156.454 276.881L156.458 276.878L156.219 276.481ZM153.017 278.721L153.323 279.069L153.331 279.062L153.017 278.721ZM151.694 281.124L151.613 281.581L152.07 281.662L152.151 281.205L151.694 281.124ZM140.19 292.222L139.814 292.494L139.819 292.5L140.19 292.222ZM141.572 284.107L141.324 283.714L141.318 283.718L141.572 284.107ZM150.494 285.68L150.127 285.965V285.965L150.494 285.68ZM149.058 293.786L149.312 294.174L149.318 294.17L149.058 293.786ZM142.467 279.497C142.776 277.75 143.407 276.428 144.328 275.492L143.666 274.842C142.58 275.945 141.885 277.457 141.553 279.336L142.467 279.497ZM144.332 275.488C145.309 274.467 146.668 273.388 148.424 272.254L147.92 271.475C146.128 272.632 144.705 273.755 143.661 274.846L144.332 275.488ZM148.424 272.254C149.658 271.455 150.606 270.761 151.256 270.173L150.634 269.485C150.038 270.024 149.137 270.686 147.92 271.475L148.424 272.254ZM151.265 270.165C151.957 269.506 152.395 268.739 152.549 267.868L151.635 267.707C151.519 268.359 151.192 268.953 150.625 269.493L151.265 270.165ZM152.549 267.868C152.764 266.658 152.401 265.591 151.499 264.713L150.851 265.378C151.544 266.053 151.793 266.814 151.635 267.707L152.549 267.868ZM151.514 264.728C150.673 263.829 149.486 263.266 148.002 263.005L147.84 263.919C149.186 264.156 150.168 264.649 150.836 265.363L151.514 264.728ZM148.002 263.005C146.476 262.736 145.008 262.852 143.609 263.359L143.925 264.232C145.163 263.783 146.465 263.677 147.84 263.919L148.002 263.005ZM143.603 263.361C142.243 263.875 141.066 264.717 140.074 265.878L140.78 266.481C141.676 265.431 142.726 264.684 143.931 264.229L143.603 263.361ZM140.715 265.815L133.379 260.034L132.804 260.763L140.14 266.544L140.715 265.815ZM133.445 260.699C135.323 258.492 137.701 256.934 140.592 256.025L140.314 255.139C137.263 256.099 134.734 257.752 132.738 260.098L133.445 260.699ZM140.592 256.025C143.476 255.117 146.805 254.986 150.595 255.654L150.757 254.74C146.857 254.052 143.371 254.177 140.314 255.139L140.592 256.025ZM150.595 255.654C154.85 256.404 158.055 257.891 160.258 260.078L160.912 259.419C158.535 257.059 155.133 255.511 150.757 254.74L150.595 255.654ZM160.263 260.083C162.483 262.218 163.315 264.798 162.77 267.875L163.684 268.036C164.282 264.659 163.353 261.767 160.907 259.414L160.263 260.083ZM162.77 267.875C162.516 269.31 162.048 270.526 161.375 271.535L162.148 272.049C162.903 270.917 163.411 269.575 163.684 268.036L162.77 267.875ZM161.378 271.531C160.695 272.531 159.941 273.346 159.118 273.982L159.685 274.716C160.596 274.013 161.415 273.123 162.145 272.054L161.378 271.531ZM159.117 273.983C158.312 274.608 157.268 275.308 155.98 276.083L156.458 276.878C157.765 276.092 158.843 275.371 159.686 274.716L159.117 273.983ZM155.984 276.081C154.552 276.922 153.453 277.688 152.702 278.38L153.331 279.062C154.011 278.435 155.046 277.708 156.454 276.881L155.984 276.081ZM152.71 278.372C151.918 279.069 151.427 279.966 151.236 281.043L152.151 281.205C152.307 280.323 152.698 279.619 153.323 279.069L152.71 278.372ZM151.775 280.667L142.091 278.959L141.929 279.874L151.613 281.581L151.775 280.667ZM144.389 294.174C142.713 293.878 141.451 293.13 140.562 291.944L139.819 292.5C140.866 293.898 142.348 294.757 144.227 295.088L144.389 294.174ZM140.567 291.95C139.678 290.721 139.369 289.386 139.629 287.916L138.715 287.755C138.41 289.476 138.78 291.065 139.814 292.494L140.567 291.95ZM139.629 287.916C139.897 286.402 140.629 285.275 141.825 284.496L141.318 283.718C139.893 284.646 139.025 286.005 138.715 287.755L139.629 287.916ZM141.819 284.5C143.053 283.724 144.512 283.47 146.231 283.773L146.393 282.859C144.485 282.523 142.784 282.796 141.325 283.714L141.819 284.5ZM146.231 283.773C147.95 284.077 149.234 284.814 150.127 285.965L150.861 285.396C149.805 284.034 148.301 283.196 146.393 282.859L146.231 283.773ZM150.127 285.965C151.017 287.113 151.332 288.423 151.064 289.932L151.979 290.093C152.29 288.339 151.919 286.761 150.861 285.396L150.127 285.965ZM151.064 289.932C150.804 291.402 150.055 292.551 148.798 293.401L149.318 294.17C150.78 293.181 151.674 291.814 151.979 290.093L151.064 289.932ZM148.805 293.397C147.564 294.207 146.104 294.476 144.389 294.174L144.227 295.088C146.139 295.425 147.846 295.131 149.312 294.174L148.805 293.397Z" fill="#202027" mask="url(#path-30-outside-8_18933_1083)"/>
<rect x="0.202599" y="0.28958" width="96.1033" height="128.304" rx="19.75" transform="matrix(0.984808 0.173648 -0.174411 0.984673 212.089 220.841)" fill="#BCEC30"/>
<rect x="0.202599" y="0.28958" width="96.1033" height="128.304" rx="19.75" transform="matrix(0.984808 0.173648 -0.174411 0.984673 212.089 220.841)" stroke="#202027" stroke-width="0.5"/>
<mask id="path-33-outside-9_18933_1083" maskUnits="userSpaceOnUse" x="231.213" y="272.925" width="32.5198" height="38.1674" fill="black">
<rect fill="white" x="231.213" y="272.925" width="32.5198" height="38.1674"/>
<path d="M243.86 296.078C244.119 294.615 244.654 293.473 245.463 292.65C246.278 291.798 247.401 290.91 248.832 289.985C249.82 289.345 250.566 288.798 251.069 288.343C251.577 287.86 251.885 287.311 251.994 286.696C252.145 285.848 251.898 285.111 251.255 284.484C250.646 283.834 249.771 283.408 248.629 283.207C247.459 283 246.342 283.09 245.278 283.476C244.243 283.866 243.345 284.508 242.583 285.399L236.666 280.735C238.228 278.899 240.208 277.604 242.604 276.85C245.001 276.096 247.75 275.992 250.851 276.539C254.333 277.153 256.998 278.377 258.846 280.211C260.728 282.021 261.438 284.228 260.977 286.832C260.765 288.032 260.371 289.063 259.795 289.927C259.225 290.762 258.59 291.45 257.891 291.99C257.226 292.507 256.37 293.08 255.323 293.71C254.178 294.383 253.317 294.985 252.74 295.517C252.168 296.019 251.813 296.666 251.673 297.456L243.86 296.078ZM245.714 308.352C244.281 308.099 243.173 307.452 242.392 306.409C241.617 305.337 241.343 304.157 241.571 302.87C241.804 301.553 242.449 300.551 243.507 299.862C244.593 299.179 245.868 298.966 247.331 299.224C248.794 299.482 249.919 300.118 250.705 301.132C251.491 302.145 251.767 303.31 251.534 304.627C251.306 305.914 250.644 306.929 249.547 307.67C248.455 308.383 247.177 308.61 245.714 308.352Z"/>
</mask>
<path d="M243.86 296.078C244.119 294.615 244.654 293.473 245.463 292.65C246.278 291.798 247.401 290.91 248.832 289.985C249.82 289.345 250.566 288.798 251.069 288.343C251.577 287.86 251.885 287.311 251.994 286.696C252.145 285.848 251.898 285.111 251.255 284.484C250.646 283.834 249.771 283.408 248.629 283.207C247.459 283 246.342 283.09 245.278 283.476C244.243 283.866 243.345 284.508 242.583 285.399L236.666 280.735C238.228 278.899 240.208 277.604 242.604 276.85C245.001 276.096 247.75 275.992 250.851 276.539C254.333 277.153 256.998 278.377 258.846 280.211C260.728 282.021 261.438 284.228 260.977 286.832C260.765 288.032 260.371 289.063 259.795 289.927C259.225 290.762 258.59 291.45 257.891 291.99C257.226 292.507 256.37 293.08 255.323 293.71C254.178 294.383 253.317 294.985 252.74 295.517C252.168 296.019 251.813 296.666 251.673 297.456L243.86 296.078ZM245.714 308.352C244.281 308.099 243.173 307.452 242.392 306.409C241.617 305.337 241.343 304.157 241.571 302.87C241.804 301.553 242.449 300.551 243.507 299.862C244.593 299.179 245.868 298.966 247.331 299.224C248.794 299.482 249.919 300.118 250.705 301.132C251.491 302.145 251.767 303.31 251.534 304.627C251.306 305.914 250.644 306.929 249.547 307.67C248.455 308.383 247.177 308.61 245.714 308.352Z" fill="white"/>
<path d="M243.86 296.078L243.403 295.997L243.322 296.455L243.779 296.535L243.86 296.078ZM245.463 292.65L245.794 292.975L245.799 292.97L245.463 292.65ZM248.832 289.985L249.084 290.375L249.084 290.375L248.832 289.985ZM251.069 288.343L251.38 288.688L251.389 288.68L251.069 288.343ZM251.255 284.484L250.915 284.802L250.923 284.809L250.931 284.817L251.255 284.484ZM245.278 283.476L245.12 283.039L245.114 283.041L245.278 283.476ZM242.583 285.399L242.296 285.764L242.646 286.04L242.937 285.7L242.583 285.399ZM236.666 280.735L236.312 280.435L236 280.802L236.378 281.1L236.666 280.735ZM242.604 276.85L242.743 277.292L242.743 277.292L242.604 276.85ZM258.846 280.211L258.519 280.541L258.524 280.546L258.846 280.211ZM259.795 289.927L260.179 290.189L260.182 290.185L259.795 289.927ZM257.891 291.99L257.607 291.623L257.606 291.624L257.891 291.99ZM255.323 293.71L255.559 294.11L255.563 294.107L255.323 293.71ZM252.74 295.517L253.047 295.866L253.055 295.858L252.74 295.517ZM251.673 297.456L251.592 297.913L252.049 297.993L252.13 297.536L251.673 297.456ZM242.392 306.409L242.016 306.681L242.021 306.687L242.392 306.409ZM243.507 299.862L243.26 299.47L243.254 299.474L243.507 299.862ZM250.705 301.132L250.338 301.416V301.416L250.705 301.132ZM249.547 307.67L249.8 308.059L249.807 308.055L249.547 307.67ZM244.317 296.159C244.565 294.762 245.067 293.714 245.794 292.975L245.132 292.324C244.24 293.231 243.674 294.469 243.403 295.997L244.317 296.159ZM245.799 292.97C246.58 292.154 247.671 291.288 249.084 290.375L248.58 289.596C247.131 290.532 245.976 291.442 245.128 292.329L245.799 292.97ZM249.084 290.375C250.081 289.729 250.85 289.167 251.38 288.688L250.758 287.999C250.282 288.429 249.56 288.961 248.58 289.596L249.084 290.375ZM251.389 288.68C251.96 288.136 252.323 287.501 252.451 286.777L251.537 286.616C251.448 287.121 251.194 287.583 250.749 288.007L251.389 288.68ZM252.451 286.777C252.63 285.77 252.327 284.88 251.579 284.152L250.931 284.817C251.469 285.342 251.659 285.926 251.537 286.616L252.451 286.777ZM251.594 284.167C250.898 283.424 249.921 282.963 248.71 282.75L248.548 283.664C249.62 283.853 250.393 284.244 250.915 284.802L251.594 284.167ZM248.71 282.75C247.464 282.53 246.264 282.625 245.12 283.039L245.436 283.912C246.419 283.556 247.454 283.471 248.548 283.664L248.71 282.75ZM245.114 283.041C244.002 283.462 243.04 284.15 242.23 285.098L242.937 285.7C243.65 284.865 244.484 284.271 245.442 283.91L245.114 283.041ZM242.871 285.035L236.953 280.371L236.378 281.1L242.296 285.764L242.871 285.035ZM237.019 281.036C238.523 279.269 240.426 278.021 242.743 277.292L242.465 276.407C239.989 277.186 237.934 278.529 236.312 280.435L237.019 281.036ZM242.743 277.292C245.053 276.566 247.724 276.459 250.771 276.996L250.932 276.082C247.776 275.525 244.949 275.625 242.465 276.407L242.743 277.292ZM250.771 276.996C254.192 277.599 256.758 278.793 258.519 280.541L259.173 279.882C257.238 277.961 254.475 276.706 250.932 276.082L250.771 276.996ZM258.524 280.546C260.293 282.247 260.955 284.298 260.52 286.752L261.434 286.913C261.922 284.159 261.163 281.796 259.168 279.877L258.524 280.546ZM260.52 286.752C260.317 287.899 259.943 288.868 259.409 289.67L260.182 290.185C260.798 289.259 261.213 288.165 261.434 286.913L260.52 286.752ZM259.412 289.666C258.865 290.466 258.263 291.116 257.607 291.623L258.175 292.357C258.918 291.783 259.585 291.058 260.179 290.189L259.412 289.666ZM257.606 291.624C256.961 292.125 256.122 292.688 255.084 293.312L255.563 294.107C256.619 293.472 257.492 292.888 258.176 292.357L257.606 291.624ZM255.088 293.31C253.931 293.989 253.038 294.611 252.426 295.176L253.055 295.858C253.597 295.359 254.425 294.776 255.559 294.11L255.088 293.31ZM252.434 295.168C251.778 295.745 251.373 296.487 251.216 297.375L252.13 297.536C252.252 296.844 252.559 296.294 253.047 295.865L252.434 295.168ZM251.754 296.999L243.941 295.621L243.779 296.535L251.592 297.913L251.754 296.999ZM245.795 307.895C244.463 307.66 243.466 307.068 242.764 306.131L242.021 306.687C242.881 307.836 244.098 308.539 245.633 308.809L245.795 307.895ZM242.769 306.137C242.066 305.165 241.822 304.112 242.028 302.951L241.114 302.789C240.864 304.202 241.168 305.509 242.016 306.681L242.769 306.137ZM242.028 302.951C242.24 301.752 242.817 300.865 243.76 300.251L243.254 299.474C242.081 300.237 241.368 301.355 241.114 302.789L242.028 302.951ZM243.754 300.255C244.728 299.643 245.882 299.44 247.25 299.682L247.412 298.767C245.855 298.493 244.459 298.715 243.26 299.47L243.754 300.255ZM247.25 299.682C248.619 299.923 249.633 300.508 250.338 301.416L251.072 300.847C250.204 299.728 248.97 299.042 247.412 298.767L247.25 299.682ZM250.338 301.416C251.04 302.321 251.288 303.352 251.077 304.546L251.991 304.707C252.246 303.268 251.942 301.969 251.072 300.847L250.338 301.416ZM251.077 304.546C250.871 305.708 250.281 306.614 249.287 307.286L249.807 308.055C251.006 307.244 251.741 306.12 251.991 304.707L251.077 304.546ZM249.293 307.282C248.314 307.921 247.16 308.136 245.795 307.895L245.633 308.809C247.195 309.085 248.596 308.845 249.8 308.059L249.293 307.282Z" fill="#202027" mask="url(#path-33-outside-9_18933_1083)"/>
<rect x="0.202599" y="0.28958" width="96.1033" height="128.304" rx="19.75" transform="matrix(0.984808 0.173648 -0.174411 0.984673 312.809 238.601)" fill="#BCEC30"/>
<rect x="0.202599" y="0.28958" width="96.1033" height="128.304" rx="19.75" transform="matrix(0.984808 0.173648 -0.174411 0.984673 312.809 238.601)" stroke="#202027" stroke-width="0.5"/>
<g filter="url(#filter0_d_18933_1083)">
<rect width="125.343" height="167.124" rx="20" transform="matrix(0.984808 0.173648 -0.174411 0.984673 123.897 49.3428)" fill="#E1FF8F"/>
<rect x="-0.202599" y="-0.28958" width="125.843" height="167.624" rx="20.25" transform="matrix(0.984808 0.173648 -0.174411 0.984673 123.843 49.3735)" stroke="#202027" stroke-width="0.5"/>
<rect x="-0.202599" y="-0.28958" width="125.843" height="167.624" rx="20.25" transform="matrix(0.984808 0.173648 -0.174411 0.984673 123.843 49.3735)" stroke="black" stroke-opacity="0.2" stroke-width="0.5"/>
</g>
<mask id="path-38-outside-10_18933_1083" maskUnits="userSpaceOnUse" x="142.296" y="111.166" width="53.0985" height="62.7822" fill="black">
<rect fill="white" x="142.296" y="111.166" width="53.0985" height="62.7822"/>
<path d="M163.293 148.907C163.721 146.489 164.604 144.601 165.942 143.241C167.289 141.833 169.145 140.365 171.51 138.838C173.143 137.779 174.376 136.875 175.207 136.124C176.047 135.324 176.556 134.417 176.736 133.402C176.985 131.999 176.577 130.781 175.514 129.746C174.507 128.671 173.061 127.967 171.175 127.634C169.241 127.293 167.394 127.441 165.636 128.079C163.926 128.724 162.441 129.784 161.183 131.258L151.402 123.55C153.985 120.514 157.256 118.374 161.217 117.128C165.178 115.881 169.722 115.71 174.848 116.614C180.602 117.629 185.006 119.652 188.06 122.683C191.171 125.675 192.345 129.323 191.583 133.626C191.231 135.609 190.58 137.314 189.629 138.742C188.687 140.121 187.638 141.258 186.482 142.151C185.383 143.004 183.969 143.951 182.238 144.993C180.346 146.105 178.923 147.1 177.969 147.979C177.024 148.81 176.436 149.878 176.205 151.184L163.293 148.907ZM166.357 169.193C163.988 168.775 162.158 167.704 160.867 165.981C159.585 164.209 159.133 162.259 159.509 160.132C159.895 157.956 160.961 156.299 162.709 155.161C164.505 154.032 166.612 153.681 169.029 154.107C171.447 154.533 173.306 155.584 174.605 157.259C175.904 158.934 176.361 160.86 175.976 163.035C175.599 165.163 174.504 166.84 172.691 168.066C170.887 169.243 168.775 169.619 166.357 169.193Z"/>
</mask>
<path d="M163.293 148.907C163.721 146.489 164.604 144.601 165.942 143.241C167.289 141.833 169.145 140.365 171.51 138.838C173.143 137.779 174.376 136.875 175.207 136.124C176.047 135.324 176.556 134.417 176.736 133.402C176.985 131.999 176.577 130.781 175.514 129.746C174.507 128.671 173.061 127.967 171.175 127.634C169.241 127.293 167.394 127.441 165.636 128.079C163.926 128.724 162.441 129.784 161.183 131.258L151.402 123.55C153.985 120.514 157.256 118.374 161.217 117.128C165.178 115.881 169.722 115.71 174.848 116.614C180.602 117.629 185.006 119.652 188.06 122.683C191.171 125.675 192.345 129.323 191.583 133.626C191.231 135.609 190.58 137.314 189.629 138.742C188.687 140.121 187.638 141.258 186.482 142.151C185.383 143.004 183.969 143.951 182.238 144.993C180.346 146.105 178.923 147.1 177.969 147.979C177.024 148.81 176.436 149.878 176.205 151.184L163.293 148.907ZM166.357 169.193C163.988 168.775 162.158 167.704 160.867 165.981C159.585 164.209 159.133 162.259 159.509 160.132C159.895 157.956 160.961 156.299 162.709 155.161C164.505 154.032 166.612 153.681 169.029 154.107C171.447 154.533 173.306 155.584 174.605 157.259C175.904 158.934 176.361 160.86 175.976 163.035C175.599 165.163 174.504 166.84 172.691 168.066C170.887 169.243 168.775 169.619 166.357 169.193Z" fill="white"/>
<path d="M163.293 148.907L162.801 148.82L162.713 149.312L163.206 149.399L163.293 148.907ZM165.942 143.241L166.299 143.592L166.304 143.586L165.942 143.241ZM171.51 138.838L171.781 139.257L171.781 139.257L171.51 138.838ZM175.207 136.124L175.542 136.495L175.552 136.486L175.207 136.124ZM175.514 129.746L175.149 130.087L175.157 130.096L175.165 130.104L175.514 129.746ZM165.636 128.079L165.466 127.609L165.459 127.611L165.636 128.079ZM161.183 131.258L160.873 131.65L161.251 131.948L161.563 131.582L161.183 131.258ZM151.402 123.55L151.022 123.226L150.685 123.621L151.093 123.942L151.402 123.55ZM161.217 117.128L161.367 117.604V117.604L161.217 117.128ZM188.06 122.683L187.708 123.038L187.713 123.044L188.06 122.683ZM189.629 138.742L190.042 139.023L190.045 139.018L189.629 138.742ZM186.482 142.151L186.176 141.755L186.175 141.756L186.482 142.151ZM182.238 144.993L182.492 145.424L182.496 145.421L182.238 144.993ZM177.969 147.979L178.299 148.355L178.308 148.347L177.969 147.979ZM176.205 151.184L176.118 151.676L176.61 151.763L176.697 151.27L176.205 151.184ZM160.867 165.981L160.462 166.274L160.467 166.281L160.867 165.981ZM162.709 155.161L162.443 154.738L162.436 154.743L162.709 155.161ZM174.605 157.259L174.21 157.566V157.566L174.605 157.259ZM172.691 168.066L172.964 168.484L172.971 168.48L172.691 168.066ZM163.785 148.994C164.201 146.647 165.05 144.861 166.299 143.591L165.586 142.891C164.159 144.341 163.241 146.331 162.801 148.82L163.785 148.994ZM166.304 143.586C167.614 142.216 169.435 140.772 171.781 139.257L171.239 138.418C168.854 139.958 166.964 141.45 165.581 142.896L166.304 143.586ZM171.781 139.257C173.424 138.193 174.682 137.272 175.542 136.495L174.872 135.753C174.07 136.478 172.863 137.365 171.238 138.418L171.781 139.257ZM175.552 136.486C176.459 135.622 177.028 134.622 177.229 133.489L176.244 133.315C176.085 134.212 175.635 135.027 174.862 135.762L175.552 136.486ZM177.229 133.489C177.507 131.915 177.039 130.532 175.863 129.387L175.165 130.104C176.116 131.03 176.462 132.084 176.244 133.315L177.229 133.489ZM175.879 129.404C174.779 128.229 173.223 127.488 171.262 127.142L171.088 128.127C172.899 128.446 174.236 129.112 175.149 130.087L175.879 129.404ZM171.262 127.142C169.246 126.787 167.311 126.94 165.466 127.609L165.806 128.549C167.478 127.943 169.235 127.8 171.088 128.127L171.262 127.142ZM165.459 127.611C163.665 128.288 162.112 129.4 160.803 130.933L161.563 131.582C162.77 130.169 164.186 129.161 165.812 128.546L165.459 127.611ZM161.493 130.865L151.712 123.157L151.093 123.942L160.873 131.65L161.493 130.865ZM151.783 123.873C154.302 120.913 157.492 118.824 161.367 117.604L161.067 116.651C157.021 117.924 153.668 120.116 151.022 123.226L151.783 123.873ZM161.367 117.604C165.234 116.388 169.694 116.213 174.76 117.106L174.935 116.122C169.749 115.207 165.122 115.375 161.067 116.651L161.367 117.604ZM174.76 117.106C180.45 118.11 184.748 120.1 187.708 123.038L188.413 122.329C185.265 119.204 180.755 117.148 174.935 116.122L174.76 117.106ZM187.713 123.044C190.702 125.918 191.824 129.398 191.09 133.539L192.075 133.713C192.866 129.248 191.639 125.432 188.407 122.323L187.713 123.044ZM191.09 133.539C190.749 135.465 190.12 137.103 189.213 138.465L190.045 139.018C191.041 137.524 191.714 135.752 192.075 133.713L191.09 133.539ZM189.216 138.46C188.299 139.802 187.285 140.898 186.176 141.755L186.788 142.546C187.99 141.617 189.074 140.44 190.042 139.023L189.216 138.46ZM186.175 141.756C185.098 142.593 183.701 143.529 181.981 144.564L182.496 145.421C184.237 144.374 185.669 143.415 186.789 142.545L186.175 141.756ZM181.985 144.562C180.08 145.681 178.622 146.698 177.63 147.612L178.308 148.347C179.224 147.503 180.612 146.528 182.492 145.423L181.985 144.562ZM177.639 147.604C176.604 148.514 175.962 149.686 175.712 151.097L176.697 151.27C176.91 150.07 177.444 149.106 178.299 148.355L177.639 147.604ZM176.292 150.691L163.38 148.415L163.206 149.399L176.118 151.676L176.292 150.691ZM166.445 168.7C164.184 168.302 162.473 167.291 161.268 165.681L160.467 166.281C161.843 168.118 163.791 169.248 166.27 169.685L166.445 168.7ZM161.272 165.688C160.069 164.024 159.649 162.211 160.002 160.219L159.017 160.045C158.616 162.308 159.102 164.394 160.462 166.274L161.272 165.688ZM160.002 160.219C160.365 158.17 161.358 156.638 162.982 155.58L162.436 154.743C160.565 155.961 159.425 157.742 159.017 160.045L160.002 160.219ZM162.975 155.585C164.649 154.532 166.626 154.191 168.942 154.599L169.117 153.615C166.597 153.17 164.36 153.532 162.443 154.738L162.975 155.585ZM168.942 154.599C171.259 155.008 172.999 156.004 174.21 157.566L175 156.953C173.613 155.164 171.636 154.059 169.117 153.615L168.942 154.599ZM174.21 157.566C175.418 159.124 175.845 160.905 175.483 162.949L176.468 163.122C176.877 160.814 176.39 158.744 175 156.953L174.21 157.566ZM175.483 162.949C175.13 164.941 174.113 166.5 172.411 167.652L172.971 168.48C174.894 167.179 176.067 165.385 176.468 163.122L175.483 162.949ZM172.418 167.647C170.735 168.746 168.756 169.108 166.445 168.7L166.27 169.685C168.794 170.13 171.038 169.741 172.964 168.484L172.418 167.647Z" fill="#202027" mask="url(#path-38-outside-10_18933_1083)"/>
</g>
<defs>
<filter id="filter0_d_18933_1083" x="56.6545" y="25.1011" width="228.775" height="262.516" filterUnits="userSpaceOnUse" color-interpolation-filters="sRGB">
<feFlood flood-opacity="0" result="BackgroundImageFix"/>
<feColorMatrix in="SourceAlpha" type="matrix" values="0 0 0 0 0 0 0 0 0 0 0 0 0 0 0 0 0 0 127 0" result="hardAlpha"/>
<feMorphology radius="8.31143" operator="erode" in="SourceAlpha" result="effect1_dropShadow_18933_1083"/>
<feOffset dy="13.8524"/>
<feGaussianBlur stdDeviation="23.2027"/>
<feComposite in2="hardAlpha" operator="out"/>
<feColorMatrix type="matrix" values="0 0 0 0 0 0 0 0 0 0 0 0 0 0 0 0 0 0 0.3 0"/>
<feBlend mode="normal" in2="BackgroundImageFix" result="effect1_dropShadow_18933_1083"/>
<feBlend mode="normal" in="SourceGraphic" in2="effect1_dropShadow_18933_1083" result="shape"/>
</filter>
<clipPath id="clip0_18933_1083">
<rect width="343" height="284.926" rx="30" fill="white"/>
</clipPath>
</defs>
</svg>
