<svg width="343" height="285" viewBox="0 0 343 285" fill="none" xmlns="http://www.w3.org/2000/svg">
<g clip-path="url(#clip0_18933_1131)">
<rect width="343" height="284.926" rx="30" fill="#271A58"/>
<rect x="0.23317" y="0.333277" width="91.4962" height="91.4962" rx="19.7123" transform="matrix(0.984808 0.173648 -0.174411 0.984673 12.3297 -87.134)" fill="#D9B6FF"/>
<rect x="0.23317" y="0.333277" width="91.4962" height="91.4962" rx="19.7123" transform="matrix(0.984808 0.173648 -0.174411 0.984673 12.3297 -87.134)" stroke="#271A58" stroke-width="0.575447"/>
<rect x="0.23317" y="0.333277" width="91.4962" height="91.4962" rx="19.7123" transform="matrix(0.984808 0.173648 -0.174411 0.984673 109.873 -69.9346)" fill="#1FA46C"/>
<rect x="0.23317" y="0.333277" width="91.4962" height="91.4962" rx="19.7123" transform="matrix(0.984808 0.173648 -0.174411 0.984673 109.873 -69.9346)" stroke="#271A58" stroke-width="0.575447"/>
<rect x="0.23317" y="0.333277" width="91.4962" height="91.4962" rx="19.7123" transform="matrix(0.984808 0.173648 -0.174411 0.984673 207.417 -52.7351)" fill="#565EEF"/>
<rect x="0.23317" y="0.333277" width="91.4962" height="91.4962" rx="19.7123" transform="matrix(0.984808 0.173648 -0.174411 0.984673 207.417 -52.7351)" stroke="#271A58" stroke-width="0.575447"/>
<rect x="0.23317" y="0.333277" width="91.4962" height="91.4962" rx="19.7123" transform="matrix(0.984808 0.173648 -0.174411 0.984673 304.96 -35.5354)" fill="#00C1FF"/>
<rect x="0.23317" y="0.333277" width="91.4962" height="91.4962" rx="19.7123" transform="matrix(0.984808 0.173648 -0.174411 0.984673 304.96 -35.5354)" stroke="#271A58" stroke-width="0.575447"/>
<rect x="0.23317" y="0.333277" width="91.4962" height="91.4962" rx="19.7123" transform="matrix(0.984808 0.173648 -0.174411 0.984673 -4.85776 10.3391)" fill="#F25050"/>
<rect x="0.23317" y="0.333277" width="91.4962" height="91.4962" rx="19.7123" transform="matrix(0.984808 0.173648 -0.174411 0.984673 -4.85776 10.3391)" stroke="#271A58" stroke-width="0.575447"/>
<rect x="0.23317" y="0.333277" width="91.4962" height="91.4962" rx="19.7123" transform="matrix(0.984808 0.173648 -0.174411 0.984673 92.6862 27.5386)" fill="#FFC700"/>
<rect x="0.23317" y="0.333277" width="91.4962" height="91.4962" rx="19.7123" transform="matrix(0.984808 0.173648 -0.174411 0.984673 92.6862 27.5386)" stroke="#271A58" stroke-width="0.575447"/>
<rect x="0.23317" y="0.333277" width="91.4962" height="91.4962" rx="19.7123" transform="matrix(0.984808 0.173648 -0.174411 0.984673 190.23 44.7383)" fill="#99D100"/>
<rect x="0.23317" y="0.333277" width="91.4962" height="91.4962" rx="19.7123" transform="matrix(0.984808 0.173648 -0.174411 0.984673 190.23 44.7383)" stroke="#271A58" stroke-width="0.575447"/>
<rect x="0.23317" y="0.333277" width="91.4962" height="91.4962" rx="19.7123" transform="matrix(0.984808 0.173648 -0.174411 0.984673 287.773 61.9378)" fill="#AD61FF"/>
<rect x="0.23317" y="0.333277" width="91.4962" height="91.4962" rx="19.7123" transform="matrix(0.984808 0.173648 -0.174411 0.984673 287.773 61.9378)" stroke="#271A58" stroke-width="0.575447"/>
<rect x="0.23317" y="0.333277" width="91.4962" height="91.4962" rx="19.7123" transform="matrix(0.984808 0.173648 -0.174411 0.984673 -22.0448 107.813)" fill="#565EEF"/>
<rect x="0.23317" y="0.333277" width="91.4962" height="91.4962" rx="19.7123" transform="matrix(0.984808 0.173648 -0.174411 0.984673 -22.0448 107.813)" stroke="#271A58" stroke-width="0.575447"/>
<rect x="0.23317" y="0.333277" width="91.4962" height="91.4962" rx="19.7123" transform="matrix(0.984808 0.173648 -0.174411 0.984673 75.4987 125.012)" fill="#00C1FF"/>
<rect x="0.23317" y="0.333277" width="91.4962" height="91.4962" rx="19.7123" transform="matrix(0.984808 0.173648 -0.174411 0.984673 75.4987 125.012)" stroke="#271A58" stroke-width="0.575447"/>
<rect x="0.23317" y="0.333277" width="91.4962" height="91.4962" rx="19.7123" transform="matrix(0.984808 0.173648 -0.174411 0.984673 173.042 142.212)" fill="#FF6D00"/>
<rect x="0.23317" y="0.333277" width="91.4962" height="91.4962" rx="19.7123" transform="matrix(0.984808 0.173648 -0.174411 0.984673 173.042 142.212)" stroke="#271A58" stroke-width="0.575447"/>
<rect x="0.23317" y="0.333277" width="91.4962" height="91.4962" rx="19.7123" transform="matrix(0.984808 0.173648 -0.174411 0.984673 270.586 159.411)" fill="#1FA46C"/>
<rect x="0.23317" y="0.333277" width="91.4962" height="91.4962" rx="19.7123" transform="matrix(0.984808 0.173648 -0.174411 0.984673 270.586 159.411)" stroke="#271A58" stroke-width="0.575447"/>
<rect x="0.23317" y="0.333277" width="91.4962" height="91.4962" rx="19.7123" transform="matrix(0.984808 0.173648 -0.174411 0.984673 -39.2318 205.286)" fill="#AD61FF"/>
<rect x="0.23317" y="0.333277" width="91.4962" height="91.4962" rx="19.7123" transform="matrix(0.984808 0.173648 -0.174411 0.984673 -39.2318 205.286)" stroke="#271A58" stroke-width="0.575447"/>
<rect x="0.23317" y="0.333277" width="91.4962" height="91.4962" rx="19.7123" transform="matrix(0.984808 0.173648 -0.174411 0.984673 58.3117 222.485)" fill="#99D100"/>
<rect x="0.23317" y="0.333277" width="91.4962" height="91.4962" rx="19.7123" transform="matrix(0.984808 0.173648 -0.174411 0.984673 58.3117 222.485)" stroke="#271A58" stroke-width="0.575447"/>
<rect x="0.23317" y="0.333277" width="91.4962" height="91.4962" rx="19.7123" transform="matrix(0.984808 0.173648 -0.174411 0.984673 155.855 239.685)" fill="#FFC700"/>
<rect x="0.23317" y="0.333277" width="91.4962" height="91.4962" rx="19.7123" transform="matrix(0.984808 0.173648 -0.174411 0.984673 155.855 239.685)" stroke="#271A58" stroke-width="0.575447"/>
<rect x="0.23317" y="0.333277" width="91.4962" height="91.4962" rx="19.7123" transform="matrix(0.984808 0.173648 -0.174411 0.984673 253.399 256.885)" fill="#D9B6FF"/>
<rect x="0.23317" y="0.333277" width="91.4962" height="91.4962" rx="19.7123" transform="matrix(0.984808 0.173648 -0.174411 0.984673 253.399 256.885)" stroke="#271A58" stroke-width="0.575447"/>
</g>
<defs>
<clipPath id="clip0_18933_1131">
<rect width="343" height="284.926" rx="30" fill="white"/>
</clipPath>
</defs>
</svg>
