<svg width="1865" height="1132" viewBox="0 0 1865 1132" fill="none" xmlns="http://www.w3.org/2000/svg">
<path d="M1031.79 324L1108 412.38L791 487" stroke="#202027" stroke-linecap="round"/>
<path d="M1498.68 382.406C1508.11 385.031 1770.52 495.965 1770.52 495.965L1492.11 525.848L1667.99 751.66L1420.04 597.412L1394.77 858.856L1324.88 583.531L1091.94 714.493L1252.41 522.266L967.63 509.289L1235.3 429.027L1036.4 199.959L1316.04 331.504L1380.03 77.6902L1408.77 332.048L1663.48 156.602L1498.68 382.406Z" fill="#BCEC30" stroke="#202027" stroke-miterlimit="10" stroke-linecap="round"/>
<path d="M1022.08 588H1146L1004 767" stroke="#202027" stroke-linecap="round"/>
<path d="M1162 792.046L1275.76 713L1381.88 1131" stroke="#202027" stroke-linecap="round"/>
<path d="M1240.16 802L1184 860.765L1264 928L1240.16 802Z" fill="#BCEC30" stroke="#202027" stroke-linecap="round"/>
<path d="M1282 997L1316 1121" stroke="#202027" stroke-linecap="round"/>
<path d="M28.5 429.441L35.7287 448.976L35.8084 449.192L36.0241 449.271L55.5592 456.5L36.0241 463.729L35.8084 463.808L35.7287 464.024L28.5 483.559L21.2713 464.024L21.1916 463.808L20.9759 463.729L1.44077 456.5L20.9759 449.271L21.1916 449.192L21.2713 448.976L28.5 429.441Z" fill="#BCEC30" stroke="#202027"/>
<path d="M903.5 873.441L908.028 885.677L908.108 885.892L908.323 885.972L920.559 890.5L908.323 895.028L908.108 895.108L908.028 895.323L903.5 907.559L898.972 895.323L898.892 895.108L898.677 895.028L886.441 890.5L898.677 885.972L898.892 885.892L898.972 885.677L903.5 873.441Z" fill="#BCEC30" stroke="#202027"/>
<path d="M110.5 404.441L114.758 415.947L114.837 416.163L115.053 416.242L126.559 420.5L115.053 424.758L114.837 424.837L114.758 425.053L110.5 436.559L106.242 425.053L106.163 424.837L105.947 424.758L94.4408 420.5L105.947 416.242L106.163 416.163L106.242 415.947L110.5 404.441Z" stroke="#202027"/>
<path d="M991.5 903.441L1002.24 932.465L1002.32 932.68L1002.54 932.76L1031.56 943.5L1002.54 954.24L1002.32 954.32L1002.24 954.535L991.5 983.559L980.76 954.535L980.68 954.32L980.465 954.24L951.441 943.5L980.465 932.76L980.68 932.68L980.76 932.465L991.5 903.441Z" stroke="#202027"/>
</svg>
